<svg xmlns="http://www.w3.org/2000/svg" xmlns:xlink="http://www.w3.org/1999/xlink" width="48" height="48" viewBox="0 0 48 48"><defs><clipPath id="b"><rect width="48" height="48"/></clipPath></defs><g id="a" clip-path="url(#b)"><path d="M43.5,48H4.5A4.5,4.5,0,0,1,0,43.5V4.5A4.5,4.5,0,0,1,4.5,0h39A4.5,4.5,0,0,1,48,4.5v39A4.5,4.5,0,0,1,43.5,48ZM4.5,3A1.5,1.5,0,0,0,3,4.5v39A1.5,1.5,0,0,0,4.5,45h39A1.5,1.5,0,0,0,45,43.5V4.5A1.5,1.5,0,0,0,43.5,3Z" fill="#08265d"/><path d="M46.5,9H1.5a1.5,1.5,0,0,1,0-3h45a1.5,1.5,0,0,1,0,3Z" transform="translate(0 3)" fill="#08265d"/><circle cx="1" cy="1" r="1" transform="translate(5 5)" fill="#08265d"/><circle cx="1" cy="1" r="1" transform="translate(9 5)" fill="#08265d"/><circle cx="1" cy="1" r="1" transform="translate(14 5)" fill="#08265d"/><path d="M14.5,25h-9A1.5,1.5,0,0,1,4,23.5v-12A1.5,1.5,0,0,1,5.5,10h9A1.5,1.5,0,0,1,16,11.5v12A1.5,1.5,0,0,1,14.5,25ZM7,22h6V13H7Z" transform="translate(2 5)" fill="#08265d"/><path d="M30.5,33h-9A1.5,1.5,0,0,1,20,31.5v-12A1.5,1.5,0,0,1,21.5,18h9A1.5,1.5,0,0,1,32,19.5v12A1.5,1.5,0,0,1,30.5,33ZM23,30h6V21H23Z" transform="translate(10 9)" fill="#08265d"/><path d="M33.5,13h-18a1.5,1.5,0,0,1,0-3h18a1.5,1.5,0,1,1,0,3Z" transform="translate(7 5)" fill="#08265d"/><path d="M33.5,17h-18a1.5,1.5,0,0,1,0-3h18a1.5,1.5,0,1,1,0,3Z" transform="translate(7 7)" fill="#08265d"/><path d="M18.5,21h-3a1.5,1.5,0,0,1,0-3h3a1.5,1.5,0,0,1,0,3Z" transform="translate(7 9)" fill="#08265d"/><path d="M23.5,25H5.5a1.5,1.5,0,0,1,0-3h18a1.5,1.5,0,0,1,0,3Z" transform="translate(2 11)" fill="#08265d"/><path d="M23.5,29H5.5a1.5,1.5,0,1,1,0-3h18a1.5,1.5,0,0,1,0,3Z" transform="translate(2 13)" fill="#08265d"/></g></svg>