<svg xmlns="http://www.w3.org/2000/svg" xmlns:xlink="http://www.w3.org/1999/xlink" width="48" height="48" viewBox="0 0 48 48"><defs><clipPath id="b"><rect width="48" height="48"/></clipPath></defs><g id="a" clip-path="url(#b)"><g transform="translate(1.004 3)"><g transform="translate(6.634 15.048)"><path d="M87.537,45.01c.011-.022-6.181,6.254-6.181,6.254l-2.518-2.4L76.38,51.442,81.474,56.3l8.633-9.061S87.548,45,87.525,45.01Z" transform="translate(-76.38 -45.01)" fill="#08265d" stroke="#08265d" stroke-width="0.2"/></g><g transform="translate(36.671 18.251)"><path d="M81.206,45.01c0-.01-2.674,2.705-2.674,2.705l-1.089-1.038L76.38,47.792l2.2,2.1,3.734-3.919s-1.107-.969-1.117-.964Z" transform="translate(-76.38 -45.01)" fill="#08265d" stroke="#08265d" stroke-width="0.2"/></g><path d="M53.043,32.291a6.1,6.1,0,0,1-12.157.864H34.519a14.5,14.5,0,0,1-3.574,8.785l5.206,5.386a3.462,3.462,0,0,1,4.4.52,3.765,3.765,0,0,1,0,5.2,3.469,3.469,0,0,1-5.03,0,3.721,3.721,0,0,1-1.043-2.6,3.79,3.79,0,0,1,.54-1.948L29.8,43.1a13.5,13.5,0,0,1-9.069,3.526A14.083,14.083,0,0,1,6.91,32.329a14.083,14.083,0,0,1,13.821-14.3,13.526,13.526,0,0,1,9.535,3.963l4.751-4.915a3.772,3.772,0,0,1,.5-4.55,3.469,3.469,0,0,1,5.03,0,3.765,3.765,0,0,1,0,5.2,3.462,3.462,0,0,1-4.4.52l-4.789,4.954A14.514,14.514,0,0,1,34.525,31.5h6.357a6.1,6.1,0,0,1,12.167.792ZM36.071,15.125a2.046,2.046,0,0,0,.573,1.428,1.95,1.95,0,0,0,2.761,0h0a2.067,2.067,0,0,0,0-2.856,1.9,1.9,0,0,0-2.761,0A2.046,2.046,0,0,0,36.071,15.125Zm1.953,33.3a1.9,1.9,0,0,0-1.38.592,2.067,2.067,0,0,0,0,2.856,1.95,1.95,0,0,0,2.761,0,2.067,2.067,0,0,0,0-2.856,1.911,1.911,0,0,0-1.38-.592Zm-5.088-16.1A12.445,12.445,0,0,0,20.72,19.687,12.445,12.445,0,0,0,8.5,32.324,12.445,12.445,0,0,0,20.72,44.961,12.445,12.445,0,0,0,32.936,32.324Zm18.5-.039a4.508,4.508,0,1,0-4.505,4.661A4.589,4.589,0,0,0,51.438,32.285Z" transform="translate(-6.91 -11.45)" fill="#08265d" stroke="#08265d" stroke-width="1.3"/></g></g></svg>