<svg xmlns="http://www.w3.org/2000/svg" xmlns:xlink="http://www.w3.org/1999/xlink" width="48" height="27" viewBox="0 0 48 27"><defs><clipPath id="b"><rect width="48" height="27"/></clipPath></defs><g id="a" clip-path="url(#b)"><g transform="translate(48 1) rotate(90)"><path d="M25.8,24.1a2.218,2.218,0,0,1-.624,1.326l-20.6,21.51a2.73,2.73,0,0,1-2.464.821A2.511,2.511,0,0,1,.131,46.2a2.163,2.163,0,0,1,.561-2.316L19.827,23.9.692,3.912A2.162,2.162,0,0,1,.13,1.6,2.511,2.511,0,0,1,2.111.038,2.73,2.73,0,0,1,4.575.86l20.6,21.51A2.184,2.184,0,0,1,25.8,24.1Z" fill="#08265d"/></g></g></svg>