<svg xmlns="http://www.w3.org/2000/svg" xmlns:xlink="http://www.w3.org/1999/xlink" width="48" height="48" viewBox="0 0 48 48">
  <defs>
    <clipPath id="clip-calendar-icon-yellow">
      <rect width="48" height="48"/>
    </clipPath>
  </defs>
  <g id="calendar-icon-yellow" clip-path="url(#clip-calendar-icon-yellow)">
    <g id="noun-date-3835866" transform="translate(-1 -1)">
      <g id="Layer_2" data-name="Layer 2" transform="translate(1 1)">
        <path id="Path_29643" data-name="Path 29643" d="M42.18,5.364H38.091V3.182a2.182,2.182,0,1,0-4.364,0V5.364H27.182V3.182a2.182,2.182,0,0,0-4.364,0V5.364H16.273V3.182a2.182,2.182,0,1,0-4.364,0V5.364H7.82A6.827,6.827,0,0,0,1,12.182v30A6.827,6.827,0,0,0,7.82,49H42.18A6.827,6.827,0,0,0,49,42.182v-30a6.827,6.827,0,0,0-6.82-6.818ZM5.364,12.182A2.459,2.459,0,0,1,7.82,9.727h4.089v2.182a2.182,2.182,0,1,0,4.364,0V9.727h6.545v2.182a2.182,2.182,0,0,0,4.364,0V9.727h6.545v2.182a2.182,2.182,0,1,0,4.364,0V9.727H42.18a2.459,2.459,0,0,1,2.457,2.455v6.273H5.364Zm39.273,30a2.459,2.459,0,0,1-2.457,2.455H7.82a2.459,2.459,0,0,1-2.457-2.455V22.818H44.636Z" transform="translate(-1 -1)" fill="#ffe610"/>
        <path id="Path_29644" data-name="Path 29644" d="M13,25.452a2.182,2.182,0,0,0,3.085,0l8.727-8.727a2.182,2.182,0,1,0-3.085-3.085l-7.184,7.185L11.724,18a2.182,2.182,0,1,0-3.085,3.085Z" transform="translate(7.273 13.182)" fill="#ffe610"/>
      </g>
    </g>
  </g>
</svg>
