<svg xmlns="http://www.w3.org/2000/svg" xmlns:xlink="http://www.w3.org/1999/xlink" width="48" height="48" viewBox="0 0 48 48">
  <defs>
    <clipPath id="clip-certificates-icon">
      <rect width="48" height="48"/>
    </clipPath>
  </defs>
  <g id="certificates-icon" clip-path="url(#clip-certificates-icon)">
    <g id="noun-certificate-6059989" transform="translate(-0.794 0.555)">
      <g id="Group_16103" data-name="Group 16103" transform="translate(0.794 1.445)">
        <path id="Path_29740" data-name="Path 29740" d="M1.621,1.445a.828.828,0,0,0-.828.827v34.2a.828.828,0,0,0,.827.828H19.032v7.25a.828.828,0,0,0,1.331.657l4.373-3.353L29.109,45.2a.828.828,0,0,0,1.331-.657V37.3H47.966a.828.828,0,0,0,.828-.827V2.272a.828.828,0,0,0-.827-.828ZM2.449,3.1H47.139V35.64H30.692a9.044,9.044,0,0,0,2.733-4.247h4.494a.828.828,0,0,0,.771-.525,8.925,8.925,0,0,1,3.8-4.443.828.828,0,0,0,.41-.714V13.03a.828.828,0,0,0-.41-.714,8.925,8.925,0,0,1-3.8-4.445.828.828,0,0,0-.771-.526H11.676a.828.828,0,0,0-.77.525A8.926,8.926,0,0,1,7.1,12.318a.828.828,0,0,0-.411.715V25.71a.828.828,0,0,0,.41.715,8.926,8.926,0,0,1,3.8,4.443.828.828,0,0,0,.77.525h4.494A9.043,9.043,0,0,0,18.9,35.64H2.449ZM12.214,9H37.381a10.569,10.569,0,0,0,3.867,4.481V25.26a10.569,10.569,0,0,0-3.866,4.479H33.75c.028-.3.045-.6.045-.9a9,9,0,1,0-18,0c0,.3.016.605.045.9H12.206A10.569,10.569,0,0,0,8.34,25.26V13.485A10.569,10.569,0,0,0,12.215,9Zm5.735,4.908a.828.828,0,1,0,0,1.655H31.639a.828.828,0,0,0,0-1.655Zm6.845,7.566a7.341,7.341,0,0,1,7.346,7.361A7.442,7.442,0,0,1,32,30.288a.828.828,0,0,0-.032.153A7.346,7.346,0,0,1,29.2,34.732a.828.828,0,0,0-.155.113,7.36,7.36,0,0,1-8.6-.067.828.828,0,0,0-.173-.131A7.345,7.345,0,0,1,17.6,30.328l0-.019a7.453,7.453,0,0,1-.146-1.472,7.341,7.341,0,0,1,7.346-7.361Zm3.425,4.4h0a.828.828,0,0,0-.585.243L23.963,29.8,22.079,27.91a.828.828,0,0,0-1.172,1.169l2.469,2.474a.828.828,0,0,0,1.172,0l4.257-4.265a.827.827,0,0,0-.587-1.412ZM20.687,36.858a8.969,8.969,0,0,0,8.1.058v5.953L25.24,40.149a.828.828,0,0,0-1.007,0l-3.546,2.719Z" transform="translate(-0.794 -1.445)" stroke="#000" stroke-width="0.4"/>
      </g>
    </g>
  </g>
</svg>
