<svg xmlns="http://www.w3.org/2000/svg" xmlns:xlink="http://www.w3.org/1999/xlink" width="48" height="48" viewBox="0 0 48 48"><defs><clipPath id="b"><rect width="48" height="48"/></clipPath></defs><g id="a" clip-path="url(#b)"><path d="M444.871,398.426a2.863,2.863,0,0,0-4.027,0l-19.15,19-19.15-19a2.863,2.863,0,0,0-4.027,0,2.808,2.808,0,0,0,0,4l19.15,19-19.15,19a2.808,2.808,0,0,0,0,4,2.836,2.836,0,0,0,4.016,0l19.15-19,19.15,19a2.836,2.836,0,0,0,4.016,0,2.809,2.809,0,0,0,0-4l-19.15-19,19.15-19a2.809,2.809,0,0,0,0-4Z" transform="translate(-397.683 -397.599)" fill="#08265d"/></g></svg>