<svg xmlns="http://www.w3.org/2000/svg" xmlns:xlink="http://www.w3.org/1999/xlink" width="48" height="48" viewBox="0 0 48 48"><defs><clipPath id="b"><rect width="48" height="48"/></clipPath></defs><g id="a" clip-path="url(#b)"><g transform="translate(-9.938 -5.25)"><path d="M18.129,31.673a.989.989,0,0,0,.666-.251.819.819,0,0,0,.275-.606V13.965h5.646v1.714a.945.945,0,0,0,1.882,0V7.961H47.3V31.074a.945.945,0,0,0,1.882,0V13.965h5.651V30.816a.945.945,0,0,0,1.882,0V13.965a1.807,1.807,0,0,0-1.882-1.714H49.183V7.964A1.807,1.807,0,0,0,47.3,6.25H26.6a1.807,1.807,0,0,0-1.882,1.714V12.25H19.072a1.807,1.807,0,0,0-1.882,1.714V30.816a.819.819,0,0,0,.275.606.989.989,0,0,0,.666.251Z" transform="translate(-2.821)" fill="#08265d" stroke="#08265d" stroke-width="0.5"/><path d="M30.545,28.125a.856.856,0,0,0-.857.857V40.947a.857.857,0,1,0,1.714,0V28.982a.856.856,0,0,0-.857-.857Z" transform="translate(-7.584 -10.339)" fill="#08265d" stroke="#08265d" stroke-width="0.5"/><path d="M42.643,13.357a.856.856,0,0,0-.857-.857H38.357a.856.856,0,0,0-.857.857v3.429a.856.856,0,0,0,.857.857h3.429a.856.856,0,0,0,.857-.857Zm-1.714,2.572H39.214V14.214h1.714Z" transform="translate(-10.63 -2.821)" fill="#08265d" stroke="#08265d" stroke-width="0.5"/><path d="M58.268,13.357a.856.856,0,0,0-.858-.857H53.982a.856.856,0,0,0-.857.857v3.429a.856.856,0,0,0,.857.857H57.41a.856.856,0,0,0,.857-.857Zm-1.714,2.572H54.84V14.214h1.714Z" transform="translate(-16.882 -2.821)" fill="#08265d" stroke="#08265d" stroke-width="0.5"/><path d="M42.643,25.857A.856.856,0,0,0,41.786,25H38.357a.856.856,0,0,0-.857.857v3.429a.856.856,0,0,0,.857.857h3.429a.856.856,0,0,0,.857-.857Zm-1.714,2.572H39.214V26.714h1.714Z" transform="translate(-10.63 -8.783)" fill="#08265d" stroke="#08265d" stroke-width="0.5"/><path d="M58.268,25.857A.856.856,0,0,0,57.41,25H53.982a.856.856,0,0,0-.857.857v3.429a.856.856,0,0,0,.857.857H57.41a.856.856,0,0,0,.857-.857Zm-1.714,2.572H54.84V26.714h1.714Z" transform="translate(-16.882 -8.783)" fill="#08265d" stroke="#08265d" stroke-width="0.5"/><path d="M41.785,37.5H38.357a.856.856,0,0,0-.857.857v3.429a.856.856,0,0,0,.857.857h3.429a.856.856,0,0,0,.857-.857V38.357a.856.856,0,0,0-.857-.857Zm-.857,3.429H39.214V39.214h1.714Z" transform="translate(-10.63 -14.638)" fill="#08265d" stroke="#08265d" stroke-width="0.5"/><path d="M57.41,37.5H53.983a.856.856,0,0,0-.857.857v3.429a.856.856,0,0,0,.857.857H57.41a.856.856,0,0,0,.857-.857V38.357a.856.856,0,0,0-.857-.857Zm-.857,3.429H54.839V39.214h1.714Z" transform="translate(-16.883 -14.638)" fill="#08265d" stroke="#08265d" stroke-width="0.5"/><path d="M49.52,63.124a.856.856,0,0,0-.3,1.175,4.279,4.279,0,0,1,.608,2.211v4.763a14.211,14.211,0,0,1-6.994,1.579,14.211,14.211,0,0,1-6.994-1.579V66.51a4.381,4.381,0,0,1,4.38-4.371H45.45a4.227,4.227,0,0,1,1.578.3.858.858,0,0,0,.634-1.595,6.012,6.012,0,0,0-.994-.293,5.437,5.437,0,1,0-7.667,0,6.1,6.1,0,0,0-4.873,5.964v5.233a.857.857,0,0,0,.343.686c.116.09,2.906,2.134,8.366,2.134s8.25-2.047,8.366-2.134a.857.857,0,0,0,.343-.686V66.51a6.04,6.04,0,0,0-.849-3.086.849.849,0,0,0-.531-.394.861.861,0,0,0-.65.094ZM42.834,52.973A3.723,3.723,0,1,1,39.11,56.7a3.723,3.723,0,0,1,3.724-3.724Z" transform="translate(-8.707 -21.645)" fill="#08265d" stroke="#08265d" stroke-width="0.5"/><path d="M22.764,62.542a4.846,4.846,0,0,0-.874-.3,4.714,4.714,0,1,0-6.966,0,5.267,5.267,0,0,0-3.986,5.1v4.406a.857.857,0,0,0,.343.686c.1.075,2.486,1.826,7.122,1.826a16.265,16.265,0,0,0,2.831-.236.857.857,0,1,0-.3-1.689,14.791,14.791,0,0,1-2.535.21,11.973,11.973,0,0,1-5.751-1.272v-3.93A3.553,3.553,0,0,1,16.2,63.791h4.414a3.41,3.41,0,0,1,1.436.306.857.857,0,1,0,.718-1.556Zm-4.358-.468h0a3,3,0,1,1,3-3,3,3,0,0,1-3,3Z" transform="translate(0 -23.041)" fill="#08265d" stroke="#08265d" stroke-width="0.5"/><path d="M74.934,62.24a4.714,4.714,0,1,0-6.966,0,4.851,4.851,0,0,0-.874.3.857.857,0,0,0,.718,1.556,3.41,3.41,0,0,1,1.436-.306h4.414a3.553,3.553,0,0,1,3.549,3.549v3.924A11.95,11.95,0,0,1,71.46,72.54a14.79,14.79,0,0,1-2.535-.21.857.857,0,0,0-.3,1.689,16.264,16.264,0,0,0,2.831.236c4.638,0,7.025-1.751,7.122-1.826a.856.856,0,0,0,.343-.686V67.337a5.267,5.267,0,0,0-3.986-5.1Zm-3.482-.165h0a3.018,3.018,0,1,0-.007,0Z" transform="translate(-21.601 -23.041)" fill="#08265d" stroke="#08265d" stroke-width="0.5"/></g></g></svg>