<svg xmlns="http://www.w3.org/2000/svg" xmlns:xlink="http://www.w3.org/1999/xlink" width="48" height="48" viewBox="0 0 48 48"><defs><clipPath id="b"><rect width="48" height="48"/></clipPath></defs><g id="a" clip-path="url(#b)"><g transform="translate(2.876 -3.361)"><path d="M5.98,12.54A2.027,2.027,0,1,0,8,14.565,2.027,2.027,0,0,0,5.98,12.54Z" transform="translate(5.08 12.187)" fill="none" stroke="#ffe610" stroke-width="0.2"/><path d="M5.98,17.867A2.027,2.027,0,1,0,8,19.892,2.027,2.027,0,0,0,5.98,17.867Z" transform="translate(5.08 19.26)" fill="none" stroke="#ffe610" stroke-width="0.2"/><path d="M5.98,7.194A2.027,2.027,0,1,0,8,9.219,2.027,2.027,0,0,0,5.98,7.194Z" transform="translate(5.08 5.09)" fill="none" stroke="#ffe610" stroke-width="0.2"/><path d="M39.525,3.452H30.807V4.3c.013-.228.952-.2.79-.363s-.562-.5-.79-.482H27.253L15.275,3.366H11.721c-.228-.013,3.554,0,3.554,0l-12.181,0A3.026,3.026,0,0,0,.124,6.416v41.9a3.026,3.026,0,0,0,2.97,3.047h36.43a3.026,3.026,0,0,0,2.963-3.047V6.5A3.026,3.026,0,0,0,39.525,3.452ZM25.652,3.366h0ZM13.5,5.145h0ZM40.8,48.4a1.322,1.322,0,0,1-1.271,1.355H3.094A1.322,1.322,0,0,1,1.823,48.4V6.5A1.322,1.322,0,0,1,3.094,5.145h36.43A1.322,1.322,0,0,1,40.8,6.5Z" transform="translate(0 0)" fill="#ffe610" stroke="#ffe610" stroke-width="0.2"/><path d="M25.109,10.4H9.323a.847.847,0,0,0,0,1.692H25.109a.847.847,0,1,0,0-1.692Z" transform="translate(11.147 9.345)" fill="#ffe610" stroke="#ffe610" stroke-width="0.2"/><path d="M12.2,13.679a.866.866,0,0,0,.594.338h.168a.905.905,0,0,0,.51-.17l6.517-5.33a.841.841,0,1,0-1.1-1.271l-5.756,4.739L11.6,9.531a.858.858,0,1,0-1.441.931Z" transform="translate(13.141 4.885)" fill="#ffe610" stroke="#ffe610" stroke-width="0.2"/><path d="M25.109,15.784H9.323a.847.847,0,0,0,0,1.692H25.109a.847.847,0,1,0,0-1.692Z" transform="translate(11.147 16.492)" fill="#ffe610" stroke="#ffe610" stroke-width="0.2"/><path d="M12.788,19.334h.168a.908.908,0,0,0,.507-.168l6.517-5.333a.84.84,0,1,0-1.1-1.271L13.126,17.3,11.6,14.848a.857.857,0,0,0-1.439.931L12.193,19a.857.857,0,0,0,.6.338Z" transform="translate(13.143 11.925)" fill="#ffe610" stroke="#ffe610" stroke-width="0.2"/><path d="M25.109,21.129H9.323a.847.847,0,0,0,0,1.692H25.109a.847.847,0,1,0,0-1.692Z" transform="translate(11.147 23.589)" fill="#ffe610" stroke="#ffe610" stroke-width="0.2"/><path d="M12.835,24.626H13a.908.908,0,0,0,.507-.168l6.517-5.333a.84.84,0,0,0-1.1-1.271L13.172,22.6,11.564,20.14a.857.857,0,1,0-1.439.931l2.032,3.217C12.411,24.458,12.577,24.626,12.835,24.626Z" transform="translate(13.096 18.991)" fill="#ffe610" stroke="#ffe610" stroke-width="0.2"/><path d="M10.519,12.789a3.654,3.654,0,1,0-5.058,0,5.586,5.586,0,0,0-3.026,4.939.815.815,0,1,0,1.629,0,3.92,3.92,0,0,1,7.837,0,.815.815,0,1,0,1.629,0,5.586,5.586,0,0,0-3.012-4.939Zm-2.528-.617a2.027,2.027,0,1,1,2.025-2.027,2.027,2.027,0,0,1-2.025,2.027Z" transform="translate(3.068 4.164)" fill="#ffe610" stroke="#ffe610" stroke-width="0.2"/><path d="M10.519,18.132a3.654,3.654,0,1,0-5.058,0,5.586,5.586,0,0,0-3.026,4.937.815.815,0,1,0,1.629,0,3.92,3.92,0,0,1,7.837,0,.815.815,0,1,0,1.629,0A5.572,5.572,0,0,0,10.519,18.132Zm-2.528-.61a2.027,2.027,0,1,1,2.025-2.027,2.027,2.027,0,0,1-2.025,2.027Z" transform="translate(3.068 11.258)" fill="#ffe610" stroke="#ffe610" stroke-width="0.2"/><path d="M10.519,23.459a3.654,3.654,0,1,0-5.058,0A5.586,5.586,0,0,0,2.435,28.4a.815.815,0,0,0,1.629,0,3.92,3.92,0,0,1,7.837,0,.815.815,0,0,0,1.629,0,5.586,5.586,0,0,0-3.012-4.937Zm-2.528-.61a2.027,2.027,0,1,1,2.025-2.027,2.027,2.027,0,0,1-2.025,2.027Z" transform="translate(3.068 18.33)" fill="#ffe610" stroke="#ffe610" stroke-width="0.2"/></g></g></svg>