<svg xmlns="http://www.w3.org/2000/svg" xmlns:xlink="http://www.w3.org/1999/xlink" width="48" height="48" viewBox="0 0 48 48"><defs><clipPath id="b"><rect width="48" height="48"/></clipPath></defs><g id="a" clip-path="url(#b)"><g transform="translate(-13.311 -3.125)"><path d="M53.1,3.125H41.946L37.619,9.487,33.292,3.125H22.133l4.088,6.01a.939.939,0,0,0,.781.39.8.8,0,0,0,.783-1.21l-2.441-3.59h6.914l4.3,6.324-1.141,1.676H30.782l-.822-1.21a.942.942,0,0,0-.781-.39.8.8,0,0,0-.783,1.21l.266.39H22.133a1.721,1.721,0,0,0-1.822,1.6v35.2a1.721,1.721,0,0,0,1.822,1.6H35.8a.807.807,0,1,0,0-1.6H22.133v-35.2h12.2l-1.089,1.6H28.965a2.153,2.153,0,0,0-2.277,2,2.153,2.153,0,0,0,2.277,2H46.272a2.153,2.153,0,0,0,2.277-2,2.153,2.153,0,0,0-2.277-2H44.4l1.089-1.6H53.1v15.2a.919.919,0,0,0,1.822,0v-15.2a1.721,1.721,0,0,0-1.822-1.6H46.575l1.9-2.79a.8.8,0,0,0-.781-1.21.939.939,0,0,0-.781.39l-4.632,6.81H35.364l7.615-11.2h6.914l-.808,1.19a.8.8,0,0,0,.783,1.21.942.942,0,0,0,.781-.39Zm-24.139,14.4a.4.4,0,1,0,0,.8H46.273a.4.4,0,1,0,0-.8Z" transform="translate(0 0)" fill="#08265d" fill-rule="evenodd"/><path d="M53.578,89.1a.822.822,0,1,0,0-1.6H35.385a.822.822,0,1,0,0,1.6Z" transform="translate(-6.863 -41.175)" fill="#08265d"/><path d="M52.363,76.975a.8.8,0,1,0,0,1.6h12a1.6,1.6,0,0,0,1.6-1.6v-16.8a.8.8,0,1,0-1.6,0v16.8Z" transform="translate(-11.036 -27.45)" fill="#08265d"/><path d="M40.977,39.553l-2.715,3.654a1.95,1.95,0,0,1-1.183.714l-5.032,1.04c-1.384.286-1.932,1.668-1.02,2.576l3.367,3.34a1.426,1.426,0,0,1,.444,1.138l-.373,4.336c-.1,1.186,1.34,2.046,2.674,1.592l4.753-1.616a2.31,2.31,0,0,1,1.479,0l4.753,1.616c1.333.454,2.775-.406,2.674-1.592l-.373-4.336a1.426,1.426,0,0,1,.444-1.138l3.367-3.34c.911-.908.364-2.29-1.02-2.576l-5.032-1.04A1.95,1.95,0,0,1,47,43.207l-2.715-3.654a2.171,2.171,0,0,0-3.306,0Zm4.368,4.49L42.63,40.389l-2.715,3.654a3.9,3.9,0,0,1-2.363,1.43l-5.032,1.04,3.367,3.342a2.858,2.858,0,0,1,.885,2.272L36.4,56.465l4.753-1.618a4.647,4.647,0,0,1,2.957,0l4.753,1.618-.373-4.338a2.858,2.858,0,0,1,.885-2.272l3.367-3.342-5.032-1.04a3.9,3.9,0,0,1-2.363-1.43Z" transform="translate(-5.011 -17.404)" fill="#08265d" fill-rule="evenodd"/><path d="M29.688,82.05a.892.892,0,0,1,.962-.8H53.741a.814.814,0,1,1,0,1.6H30.65a.892.892,0,0,1-.962-.8Z" transform="translate(-4.576 -38.125)" fill="#08265d"/></g></g></svg>