<svg xmlns="http://www.w3.org/2000/svg" xmlns:xlink="http://www.w3.org/1999/xlink" width="48" height="48" viewBox="0 0 48 48"><defs><clipPath id="b"><rect width="48" height="48"/></clipPath></defs><g id="a" clip-path="url(#b)"><g transform="translate(-0.342 -14.091)"><g transform="translate(1.675 14.87)"><path d="M15.032,50.006a1.064,1.064,0,1,1-2.118,0V22.523a8.072,8.072,0,0,1,2.025-5.406,6.553,6.553,0,0,1,4.868-2.247H41.581a6.551,6.551,0,0,1,4.868,2.247,8.069,8.069,0,0,1,2.025,5.406V53.8a8.065,8.065,0,0,1-2.025,5.4,6.551,6.551,0,0,1-4.868,2.247H8.756a5.168,5.168,0,0,1-3.841-1.771,6.368,6.368,0,0,1-1.6-4.265V30.137a1.122,1.122,0,0,1,1.059-1.175,1.121,1.121,0,0,1,1.057,1.175V55.42a3.892,3.892,0,0,0,.974,2.6,3.156,3.156,0,0,0,2.346,1.082H41.581a4.538,4.538,0,0,0,3.373-1.559,5.6,5.6,0,0,0,1.4-3.744V22.521a5.6,5.6,0,0,0-1.4-3.744,4.545,4.545,0,0,0-3.373-1.559H19.808a4.538,4.538,0,0,0-3.373,1.559,5.592,5.592,0,0,0-1.4,3.744V50Zm6.794.049a1.181,1.181,0,0,1,0-2.349h17.74a1.181,1.181,0,0,1,0,2.349Zm0-9.9a1.181,1.181,0,0,1,0-2.349h17.74a1.181,1.181,0,0,1,0,2.349Zm3.986-9.9a1.181,1.181,0,0,1,0-2.349h9.768a1.181,1.181,0,0,1,0,2.349Z" transform="translate(-3.32 -14.87)" fill="#08265d" stroke="#08265d" stroke-width="0.8"/></g></g></g></svg>