<svg xmlns="http://www.w3.org/2000/svg" xmlns:xlink="http://www.w3.org/1999/xlink" width="48" height="48" viewBox="0 0 48 48"><defs><clipPath id="b"><rect width="48" height="48"/></clipPath></defs><g id="a" clip-path="url(#b)"><g transform="translate(1.383 1.283)"><path d="M80,212v25.1a1.652,1.652,0,0,0,1.6,1.7h9.579V224.338a2.478,2.478,0,0,1,2.395-2.553h7.982a2.478,2.478,0,0,1,2.395,2.553V238.8h9.579a1.652,1.652,0,0,0,1.6-1.7V212" transform="translate(-74.895 -193.137)" fill="none" stroke="#08265d" stroke-linecap="round" stroke-linejoin="round" stroke-width="2.5"/><path d="M77.333,70.139l-21.565-21.7a1.645,1.645,0,0,0-2.2,0L32,70.139m37.238-8.19V49.717H64.381v7.339" transform="translate(-32 -48.017)" fill="none" stroke="#08265d" stroke-linecap="round" stroke-linejoin="round" stroke-width="2.5"/></g></g></svg>