<svg xmlns="http://www.w3.org/2000/svg" xmlns:xlink="http://www.w3.org/1999/xlink" width="48" height="48" viewBox="0 0 48 48"><defs><clipPath id="b"><rect width="48" height="48"/></clipPath></defs><g id="a" clip-path="url(#b)"><path d="M30.711,14.161a2.4,2.4,0,0,1,3.341,0L46.811,26.494V49.362a2.4,2.4,0,0,1-2.406,2.4H39.6V42.147a7.215,7.215,0,1,0-14.429,0v9.618H20.358a2.4,2.4,0,0,1-2.406-2.4V26.494ZM13.143,31.143l-.735.708a2.4,2.4,0,1,1-3.341-3.458L27.367,10.7a7.214,7.214,0,0,1,10.028,0L55.7,28.392a2.4,2.4,0,1,1-3.341,3.458l-.735-.708V49.362a7.214,7.214,0,0,1-7.215,7.215H20.358a7.214,7.214,0,0,1-7.215-7.215Zm19.238,8.6a2.406,2.406,0,0,0-2.406,2.406v8.416h4.811V42.147a2.406,2.406,0,0,0-2.406-2.406Z" transform="translate(-8.333 -8.576)" fill="#fff" fill-rule="evenodd"/></g></svg>