<svg xmlns="http://www.w3.org/2000/svg" xmlns:xlink="http://www.w3.org/1999/xlink" width="48" height="48" viewBox="0 0 48 48"><defs><clipPath id="b"><rect width="48" height="48"/></clipPath></defs><g id="a" clip-path="url(#b)"><path d="M42.361,0A42.361,42.361,0,1,1,0,42.361,42.361,42.361,0,0,1,42.361,0Z" transform="translate(-12.957 -18)" fill="none"/><g transform="translate(-5.426 -3.727)"><path d="M29.35,14.025a13.985,13.985,0,0,0-14.221,13.7,13.985,13.985,0,0,0,14.221,13.7,13.985,13.985,0,0,0,14.221-13.7,13.985,13.985,0,0,0-14.221-13.7Zm0,24.18A10.693,10.693,0,0,1,18.475,27.728,10.693,10.693,0,0,1,29.35,17.25,10.694,10.694,0,0,1,40.224,27.728,10.694,10.694,0,0,1,29.35,38.206ZM43.57,4.352H15.129a9.047,9.047,0,0,0-9.2,8.865l0,29.019a9.047,9.047,0,0,0,9.2,8.865H43.568a9.047,9.047,0,0,0,9.2-8.865l0-29.017a9.051,9.051,0,0,0-9.2-8.867Zm5.857,37.885A5.761,5.761,0,0,1,43.57,47.88H15.129a5.761,5.761,0,0,1-5.857-5.643V13.219a5.759,5.759,0,0,1,5.857-5.643H43.57a5.76,5.76,0,0,1,5.857,5.643ZM45.348,11.511a2.348,2.348,0,0,1,0,3.417,2.57,2.57,0,0,1-1.773.71,2.521,2.521,0,0,1-.494-.048,2.926,2.926,0,0,1-.469-.138,2.6,2.6,0,0,1-.434-.226,2.162,2.162,0,0,1-.376-.3,2.385,2.385,0,0,1-.737-1.708,2.318,2.318,0,0,1,.05-.476,1.787,1.787,0,0,1,.141-.452,2.371,2.371,0,0,1,.226-.42,2.148,2.148,0,0,1,.318-.362,2.666,2.666,0,0,1,3.548,0Z" fill="#ffe610" stroke="#ffe610" stroke-width="1"/></g></g></svg>