<svg xmlns="http://www.w3.org/2000/svg" xmlns:xlink="http://www.w3.org/1999/xlink" width="48" height="48" viewBox="0 0 48 48">
  <defs>
    <clipPath id="clip-map-w-icon">
      <rect width="48" height="48"/>
    </clipPath>
  </defs>
  <g id="map-w-icon" clip-path="url(#clip-map-w-icon)">
    <g id="noun-location-8037596" transform="translate(-10.322 -1.866)">
      <path id="Path_29640" data-name="Path 29640" d="M34.261,23.1a5.437,5.437,0,1,0-3.845-9.282l-.046.044A5.436,5.436,0,0,0,34.261,23.1Zm6.886,16.28a.983.983,0,0,1,.584-1.876,12.061,12.061,0,0,1,4.18,2.122,4.268,4.268,0,0,1,1.723,3.23c0,1.922-1.613,3.589-4.22,4.729a23.552,23.552,0,0,1-9.153,1.671,23.553,23.553,0,0,1-9.153-1.671c-2.607-1.14-4.22-2.807-4.22-4.729a4.265,4.265,0,0,1,1.723-3.23,12.078,12.078,0,0,1,4.18-2.122.983.983,0,0,1,.584,1.876,10.173,10.173,0,0,0-3.5,1.746,2.412,2.412,0,0,0-1.023,1.73c0,1.067,1.161,2.111,3.036,2.93a21.593,21.593,0,0,0,8.369,1.5,21.593,21.593,0,0,0,8.369-1.5c1.876-.819,3.036-1.861,3.036-2.93a2.409,2.409,0,0,0-1.023-1.73,10.173,10.173,0,0,0-3.5-1.746ZM34.261,2.4A15.248,15.248,0,0,1,49.51,17.657c0,5.987-5.123,12.754-9.444,18.452a53.048,53.048,0,0,0-4.927,7.175.982.982,0,0,1-1.761,0,53.017,53.017,0,0,0-4.927-7.175C24.13,30.411,19,23.646,19,17.657A15.228,15.228,0,0,1,23.473,6.87l.056-.052A15.2,15.2,0,0,1,34.26,2.4Zm9.4,5.86a13.291,13.291,0,0,0-18.746-.046l-.042.046a13.248,13.248,0,0,0-3.9,9.4c0,5.333,4.914,11.81,9.051,17.268,1.632,2.155,3.151,4.156,4.239,5.917,1.088-1.763,2.605-3.764,4.239-5.919,4.137-5.458,9.047-11.935,9.047-17.268a13.228,13.228,0,0,0-3.891-9.4ZM39.5,22.894a7.4,7.4,0,0,1-10.466,0l-.006-.006a7.394,7.394,0,0,1-.052-10.414l.052-.056A7.406,7.406,0,1,1,39.5,22.892Z" fill="#fff" stroke="#fff" stroke-width="0.5"/>
    </g>
  </g>
</svg>
