<svg xmlns="http://www.w3.org/2000/svg" xmlns:xlink="http://www.w3.org/1999/xlink" width="48" height="48" viewBox="0 0 48 48"><defs><clipPath id="b"><rect width="48" height="48"/></clipPath></defs><g id="a" clip-path="url(#b)"><g transform="translate(-14.619 -14.719)"><path d="M33.3,32.993a4,4,0,1,0-4-4A4,4,0,0,0,33.3,32.993Zm0-6.232a2.183,2.183,0,0,1,2.168,2.168,2.168,2.168,0,1,1-4.335,0A2.183,2.183,0,0,1,33.3,26.761Z" transform="translate(-4.646 -3.226)" fill="#08265d" stroke="#08265d" stroke-width="0.5"/><path d="M56.694,24.619h-4V20.69A5.724,5.724,0,0,0,47.007,15H20.59a5.724,5.724,0,0,0-5.69,5.69V47.107a5.724,5.724,0,0,0,5.69,5.69h3.929v3.929a5.724,5.724,0,0,0,5.69,5.69H56.626a5.724,5.724,0,0,0,5.69-5.69V30.308A5.623,5.623,0,0,0,56.694,24.619ZM16.864,20.69A3.787,3.787,0,0,1,20.658,16.9H47.075a3.787,3.787,0,0,1,3.793,3.793V36.879l-4-4a5.683,5.683,0,0,0-8.061,0l-5.554,5.487-2.642-2.642a5.563,5.563,0,0,0-7.993,0l-5.758,5.758ZM20.658,50.9a3.787,3.787,0,0,1-3.793-3.793,5.545,5.545,0,0,1,1.084-4l6.029-6.029a3.761,3.761,0,0,1,5.351,0L32.647,40.4a.982.982,0,0,0,1.422-.068c.068-.135,5.961-6.029,6.1-6.1a3.761,3.761,0,0,1,5.351,0l5.351,5.351v7.587a3.787,3.787,0,0,1-3.793,3.793H20.658Zm39.829,5.825a3.787,3.787,0,0,1-3.793,3.793H30.276a3.787,3.787,0,0,1-3.793-3.793V52.8H47.075a5.724,5.724,0,0,0,5.69-5.69V26.515h4a3.787,3.787,0,0,1,3.793,3.793V56.726Z" transform="translate(0 0)" fill="#08265d" stroke="#08265d" stroke-width="0.5"/></g></g></svg>