<svg xmlns="http://www.w3.org/2000/svg" xmlns:xlink="http://www.w3.org/1999/xlink" width="48" height="48" viewBox="0 0 48 48"><defs><clipPath id="b"><rect width="48" height="48"/></clipPath></defs><g id="a" clip-path="url(#b)"><g transform="translate(0.674 7)"><path d="M45.706,40.339h-11.6a.7.7,0,0,1,0-1.389h11.6a.7.7,0,0,1,0,1.389Zm.649,4.359A.673.673,0,0,0,45.706,44h-11.6a.7.7,0,0,0,0,1.389h11.6a.674.674,0,0,0,.649-.7Zm0-12.17V28.379a2.114,2.114,0,0,0-2.033-2.17H35.493a2.114,2.114,0,0,0-2.033,2.175v4.149a2.114,2.114,0,0,0,2.033,2.175h8.829a2.114,2.114,0,0,0,2.033-2.178Zm-2.033-4.936a.764.764,0,0,1,.732.786v4.149a.763.763,0,0,1-.732.786H35.493a.764.764,0,0,1-.732-.786V28.377a.763.763,0,0,1,.732-.786Zm7.431,20.821V23.184a5,5,0,0,0-4.813-5.149H9.813A5,5,0,0,0,5,23.184v25.23a5,5,0,0,0,4.813,5.149H46.94a5,5,0,0,0,4.813-5.149ZM46.94,19.424a3.648,3.648,0,0,1,3.515,3.76v25.23a3.646,3.646,0,0,1-3.515,3.758H9.813A3.647,3.647,0,0,1,6.3,48.414V23.184a3.648,3.648,0,0,1,3.515-3.76Zm-21.548,25.5a2.478,2.478,0,0,0,.927-2.191l-.349-4.005,2.482-3.02a2.542,2.542,0,0,0,.458-2.356,2.313,2.313,0,0,0-1.666-1.618l-3.662-.884L21.66,27.394a2.2,2.2,0,0,0-3.909,0l-1.918,3.458-3.666.888a2.32,2.32,0,0,0-1.662,1.62,2.542,2.542,0,0,0,.458,2.356l2.482,3.02L13.1,42.741a2.48,2.48,0,0,0,.925,2.184,2.127,2.127,0,0,0,2.236.267L19.708,43.6l3.452,1.591a2.122,2.122,0,0,0,.9.2,2.176,2.176,0,0,0,1.329-.471Zm-5.944-2.72-3.707,1.71a.919.919,0,0,1-.957-.115,1.043,1.043,0,0,1-.4-.938l.375-4.3a.727.727,0,0,0-.158-.523l-2.667-3.245a1.07,1.07,0,0,1-.195-1.008.994.994,0,0,1,.712-.694l3.941-.949a.65.65,0,0,0,.416-.324l2.06-3.717a.962.962,0,0,1,1.672,0l2.061,3.717a.65.65,0,0,0,.416.324l3.941.949a.98.98,0,0,1,.712.692,1.07,1.07,0,0,1-.195,1.01l-2.667,3.245a.719.719,0,0,0-.158.523l.373,4.3a1.052,1.052,0,0,1-.4.94.91.91,0,0,1-.957.115l-3.709-1.71a.589.589,0,0,0-.258-.056.571.571,0,0,0-.26.054Z" transform="translate(-5 -18.035)" fill="#08265d" stroke="#08265d" stroke-width="1"/></g></g></svg>