<svg xmlns="http://www.w3.org/2000/svg" xmlns:xlink="http://www.w3.org/1999/xlink" width="48" height="48" viewBox="0 0 48 48"><defs><clipPath id="b"><rect width="48" height="48"/></clipPath></defs><g id="a" clip-path="url(#b)"><g transform="translate(-0.727 -0.692)"><path d="M47.457,46.238l-3.984-7.851a.895.895,0,0,0-1.6.81l3.324,6.55H39.486L33.014,34.116a2.724,2.724,0,0,0,2.017-.606,1.036,1.036,0,0,1,1.409,0,2.848,2.848,0,0,0,2.771.436L40.255,36a.895.895,0,1,0,1.6-.81L36.533,24.712a.9.9,0,0,0-.8-.489h0a.9.9,0,0,0-.8.493l-3.4,6.746c-.8-1.431-5.439-9.775-5.962-10.713.006-.07,0-1.793,0-8.075h3.582v2.681a.9.9,0,0,0,.9.9H39a.9.9,0,0,0,.9-.9L39.9,8.2a.9.9,0,0,0-.9-.9H34.532V4.626a.9.9,0,0,0-.9-.9H25.579V2.837a.9.9,0,1,0-1.791,0c0,18.67,0,17.839,0,17.911-.512.918-5.172,9.293-5.962,10.713l-3.4-6.746a.894.894,0,0,0-1.6,0l-6.5,12.926a.9.9,0,1,0,1.6.8l2.256-4.488a2.826,2.826,0,0,0,2.74-.449,1.036,1.036,0,0,1,1.409,0,2.715,2.715,0,0,0,2.017.606L9.879,45.749l-5.628.013L6.32,41.648a.9.9,0,0,0-1.6-.806L2,46.257a.9.9,0,0,0,.8,1.3h0l16.5-.017a.9.9,0,1,0,0-1.791H11.93L20.474,30.39a2.811,2.811,0,0,0,3.5-.009,1.036,1.036,0,0,1,1.409,0,2.811,2.811,0,0,0,3.5.009l8.544,15.357-14.556,0a.9.9,0,0,0,0,1.791H46.659a.9.9,0,0,0,.8-1.3ZM35.738,27.1l2.651,5.222a1.014,1.014,0,0,1-.9-.263,2.81,2.81,0,0,0-3.515,0,1,1,0,0,1-.873.265ZM38.114,9.1v5.361H30.951V12.674h2.686a.9.9,0,0,0,.9-.9V9.1ZM32.742,5.521v5.361H25.579V5.521ZM15.387,32.063a2.81,2.81,0,0,0-3.515,0,1.008,1.008,0,0,1-.866.267l2.625-5.218,2.631,5.218A1.018,1.018,0,0,1,15.387,32.063Zm11.054-3.129a2.81,2.81,0,0,0-3.515,0c-.754.547-1.131.191-1.574-.117l3.331-5.988,3.331,5.988c-.408.282-.8.682-1.574.117Z" transform="translate(0 0)" fill="#fff" stroke="#fff" stroke-width="0.5"/></g></g></svg>