<svg xmlns="http://www.w3.org/2000/svg" xmlns:xlink="http://www.w3.org/1999/xlink" width="48" height="48" viewBox="0 0 48 48"><defs><clipPath id="b"><rect width="48" height="48"/></clipPath></defs><g id="a" clip-path="url(#b)"><g transform="translate(2)"><path d="M41.293,2.5H8.349A1.935,1.935,0,0,0,6.417,4.436V36.384H4.6a1,1,0,0,0-1,1v3.63a5.043,5.043,0,0,0,5.034,5.034h3.373A5.29,5.29,0,0,0,17.245,50.5l27.275-.017c1.772,0,3.885-.892,3.885-5.142V7.63a1.964,1.964,0,0,0-1.962-1.962H43.226V4.436A1.934,1.934,0,0,0,41.293,2.5ZM8.349,4.5l32.876-.068V41.012a2.77,2.77,0,1,1-5.531,0v-3.63a1,1,0,0,0-1-1H8.415ZM5.6,41.014v-2.63H33.694v2.63a4.991,4.991,0,0,0,1.02,3.034H8.636A3.042,3.042,0,0,1,5.6,41.014ZM46.4,7.63V45.345c0,2.9-.973,3.142-1.885,3.142L17.245,48.5a3.285,3.285,0,0,1-3.193-2.455H38.728a5.093,5.093,0,0,0,4.5-5.036V7.667Z" transform="translate(-3.602 -2.503)" fill="#ffe610"/><path d="M12.923,10.185H36.668a1,1,0,1,0,0-2H12.923a1,1,0,1,0,0,2Z" transform="translate(-3.601 -2.503)" fill="#ffe610"/><path d="M12.923,15.824H36.668a1,1,0,1,0,0-2H12.923a1,1,0,0,0,0,2Z" transform="translate(-3.601 -2.502)" fill="#ffe610"/><path d="M12.923,21.464H36.668a1,1,0,1,0,0-2H12.923a1,1,0,0,0,0,2Z" transform="translate(-3.601 -2.501)" fill="#ffe610"/><path d="M12.923,27.1H36.668a1,1,0,1,0,0-2H12.923a1,1,0,1,0,0,2Z" transform="translate(-3.601 -2.5)" fill="#ffe610"/><path d="M37.668,31.741a1,1,0,0,0-1-1H12.923a1,1,0,0,0,0,2H36.668A1,1,0,0,0,37.668,31.741Z" transform="translate(-3.601 -2.499)" fill="#ffe610"/></g></g></svg>