<svg xmlns="http://www.w3.org/2000/svg" xmlns:xlink="http://www.w3.org/1999/xlink" width="48" height="48" viewBox="0 0 48 48"><defs><clipPath id="b"><rect width="48" height="48"/></clipPath></defs><g id="a" clip-path="url(#b)"><g transform="translate(-1.562 -1.146)"><path d="M29.557,4H21.341V2.323a.761.761,0,0,0-1.521,0V4H11.6V2.323a.761.761,0,1,0-1.521,0V4H3.6A2.117,2.117,0,0,0,1.563,6.036V37.56A2.117,2.117,0,0,0,3.6,39.6h22.3a.761.761,0,0,0,0-1.521H3.6a.539.539,0,0,1-.517-.517V11.6H38.077v14.3a.761.761,0,0,0,1.521,0V6.036A2.117,2.117,0,0,0,37.56,4H31.079V2.324a.761.761,0,0,0-1.521,0Zm1.521,1.521V8.409a.761.761,0,0,1-1.521,0V5.518H21.341V8.409a.761.761,0,0,1-1.521,0V5.518H11.6V8.409a.761.761,0,0,1-1.521,0V5.518H3.6a.539.539,0,0,0-.517.517v4.047H38.077V6.036a.539.539,0,0,0-.517-.517Z" transform="translate(0 0)" fill="#ffe610" stroke="#ffe610" stroke-width="0.5" fill-rule="evenodd"/><path d="M30.785,29.9a.76.76,0,0,0-1.445,0l-2.016,6.2H20.8a.761.761,0,0,0-.447,1.377l5.278,3.832-2.016,6.2a.761.761,0,0,0,1.171.852l5.276-3.834,5.276,3.834a.761.761,0,0,0,1.171-.852l-2.016-6.2,5.278-3.832a.761.761,0,0,0-.447-1.377H32.8l-2.016-6.2Zm-.723,2.7,1.462,4.5a.763.763,0,0,0,.725.525h4.732l-3.828,2.782a.759.759,0,0,0-.276.85l1.462,4.5-3.83-2.782a.759.759,0,0,0-.894,0l-3.83,2.782,1.462-4.5a.759.759,0,0,0-.276-.85l-3.828-2.782h4.732A.763.763,0,0,0,28.6,37.1Z" transform="translate(-9.481 -14.272)" fill="#ffe610" stroke="#ffe610" stroke-width="0.5" fill-rule="evenodd"/><path d="M65.335,54.684A10.652,10.652,0,1,0,75.987,65.336,10.658,10.658,0,0,0,65.335,54.684Zm0,1.525a9.127,9.127,0,1,1-9.127,9.127A9.131,9.131,0,0,1,65.335,56.209Z" transform="translate(-27.258 -27.259)" fill="#ffe610" stroke="#ffe610" stroke-width="0.5" fill-rule="evenodd"/><path d="M64.285,73.734l3.043,3.043a.762.762,0,0,0,1.187-.141L74.6,66.713a.761.761,0,1,0-1.3-.795l-5.582,9.1-2.36-2.36a.761.761,0,0,0-1.076,1.076Z" transform="translate(-32.071 -32.837)" fill="#ffe610" stroke="#ffe610" stroke-width="0.5" fill-rule="evenodd"/></g></g></svg>