<svg xmlns="http://www.w3.org/2000/svg" xmlns:xlink="http://www.w3.org/1999/xlink" width="48" height="48" viewBox="0 0 48 48"><defs><clipPath id="b"><rect width="48" height="48"/></clipPath></defs><g id="a" clip-path="url(#b)"><g transform="translate(-25.8 -48.737)"><g transform="translate(25.8 50.21)"><path d="M46.462,82.544a1.022,1.022,0,1,1,0-2.044h5.176a1.02,1.02,0,0,0,1.022-1.022v-.97a1.02,1.02,0,0,0-1.022-1.022H43.567a6.6,6.6,0,0,0-2.221.461,16.9,16.9,0,0,0-2.564,1.237l-4.116,2.294v9.387l2.378-1.829a6.016,6.016,0,0,1,.87-.587,2.726,2.726,0,0,1,1.3-.334H55.328a1.11,1.11,0,0,0,.243-.024l.024-.007a1,1,0,0,0,.244-.1l15.409-8.9a1.031,1.031,0,0,0,.377-1.4l-.485-.839a.846.846,0,0,0-.528-.4,1.683,1.683,0,0,0-1.019.088L57.18,81.308a1.017,1.017,0,1,1-.727-1.9l12.413-4.772a3.722,3.722,0,0,1,2.272-.159,2.841,2.841,0,0,1,1.767,1.346l.485.839a3.07,3.07,0,0,1-1.12,4.187L56.86,89.743a2.96,2.96,0,0,1-.739.313l-.051.012a3.027,3.027,0,0,1-.742.091H39.211a.745.745,0,0,0-.347.1,4.528,4.528,0,0,0-.583.4L34.263,93.74l-.031.023a3.1,3.1,0,0,1-.465.6,3.06,3.06,0,0,1-2.167.9H28.866A3.079,3.079,0,0,1,25.8,92.2V81.037a3.079,3.079,0,0,1,3.066-3.066H31.6a3.056,3.056,0,0,1,2.163.9,3.11,3.11,0,0,1,.43.539l3.587-2a19.07,19.07,0,0,1,2.864-1.38,8.608,8.608,0,0,1,2.924-.589h8.072a3.079,3.079,0,0,1,3.066,3.066v.97a3.079,3.079,0,0,1-3.066,3.066Zm.409-16.907a1.767,1.767,0,1,1-1.249.517A1.763,1.763,0,0,1,46.871,65.637ZM44.6,58.069a1.022,1.022,0,1,1-2.044,0,4.312,4.312,0,1,1,6.209,3.88,1.5,1.5,0,0,0-.87,1.4v.83a1.022,1.022,0,0,1-2.044,0v-.83a3.552,3.552,0,0,1,2.02-3.232,2.278,2.278,0,0,0,.932-.84,2.228,2.228,0,0,0,.343-1.2,2.273,2.273,0,1,0-4.546,0Zm2.273-7.859A11.241,11.241,0,0,1,56.2,67.747l.656,2.449a1.02,1.02,0,0,1-1.249,1.249l-2.449-.656A11.249,11.249,0,1,1,46.871,50.21Zm6.51,4.741a9.206,9.206,0,1,0-1.066,13.938,1.019,1.019,0,0,1,.908-.2l1.2.322-.322-1.2a1.025,1.025,0,0,1,.167-.87,9.214,9.214,0,0,0-.89-11.993ZM31.6,80.015H28.866a1.02,1.02,0,0,0-1.022,1.022V92.2a1.02,1.02,0,0,0,1.022,1.022H31.6A1.02,1.02,0,0,0,32.622,92.2V81.037A1.02,1.02,0,0,0,31.6,80.015Z" transform="translate(-25.8 -50.21)" fill="#08265d" stroke="#08265d" stroke-width="0.5"/></g></g></g></svg>