<svg xmlns="http://www.w3.org/2000/svg" xmlns:xlink="http://www.w3.org/1999/xlink" width="48" height="48" viewBox="0 0 48 48">
  <defs>
    <clipPath id="clip-my-training-session-icon">
      <rect width="48" height="48"/>
    </clipPath>
  </defs>
  <g id="my-training-session-icon" clip-path="url(#clip-my-training-session-icon)">
    <g id="noun-workshop-7182789" transform="translate(-11.783 1.875)">
      <path id="Path_28763" data-name="Path 28763" d="M17.162,3.125H49.341a2.23,2.23,0,0,1,1.694.825,3.066,3.066,0,0,1,.7,1.987,3.065,3.065,0,0,1-.7,1.987,2.352,2.352,0,0,1-1.072.73v20.7a4.9,4.9,0,0,1-1.125,3.173,3.564,3.564,0,0,1-2.706,1.319H22.446a2.962,2.962,0,0,1-.679,1.208,2.535,2.535,0,0,1-1.85.83l0,0c-1.417,0-2.241.033-3.066.067l-.563.021v1.88a.755.755,0,0,1-.689.808H4.427a.755.755,0,0,1-.689-.808V28.57A7.038,7.038,0,0,1,5.6,23.757a6.036,6.036,0,0,1,4.408-1.966,4.842,4.842,0,0,1,3.812,1.771,9.9,9.9,0,0,1,1.992,4.861l.286,1.766.507-.017a5.187,5.187,0,0,1-.065-.813l0-20.706a2.352,2.352,0,0,1-1.072-.73,3.065,3.065,0,0,1-.7-1.987,3.065,3.065,0,0,1,.7-1.987,2.229,2.229,0,0,1,1.692-.825Zm23.843,9.991H25.5a.818.818,0,0,0,0,1.616H41.005a.818.818,0,0,0,0-1.616Zm0,5.213H25.5a.818.818,0,0,0,0,1.616H41.005a.818.818,0,0,0,0-1.616Zm0,5.213H33.254a.818.818,0,0,0,0,1.616h7.752a.818.818,0,0,0,0-1.616Zm-19.627,7,6.731-6.82a.619.619,0,0,1,.969.083.905.905,0,0,1-.071,1.136l-6.7,6.784a2.876,2.876,0,0,1,.168.509l23.657,0a2.281,2.281,0,0,0,1.731-.844,3.135,3.135,0,0,0,.719-2.03l0-20.608H17.918V29.357a3.372,3.372,0,0,0,.059.637c.01.045.018.09.028.135L19.9,30.07c.087,0,.03,0,.069,0a2.373,2.373,0,0,1,1.415.473Zm-.188,2.529v-.026c0-.021,0-.043,0-.064h0c0-.064,0-.021,0-.014v-.019a1.337,1.337,0,0,0-.355-.87,1.181,1.181,0,0,0-.871-.392c-.075,0,.014,0-.036,0l-2.337.071c-.024,0-.049,0-.073,0l-1.937.059a.717.717,0,0,1-.728-.656l-.393-2.439A8.234,8.234,0,0,0,12.853,24.7a3.59,3.59,0,0,0-2.841-1.3A4.76,4.76,0,0,0,6.53,24.948a5.3,5.3,0,0,0-1.415,3.62v8.474h9.791V36.006c-.345,0-.728.007-1.171.007A.553.553,0,0,1,13.609,36a2.614,2.614,0,0,1-1.23-.658,2.928,2.928,0,0,1-.778-1.269L9.239,26.412a.849.849,0,0,1,.415-1.029.665.665,0,0,1,.878.487l2.361,7.666a1.271,1.271,0,0,0,.347.554,1.317,1.317,0,0,0,.572.316c1.374,0,2.185-.033,3-.067s1.65-.067,3.109-.067v0a1.254,1.254,0,0,0,.924-.406,1.313,1.313,0,0,0,.351-.8ZM10.109,19.847a2.742,2.742,0,0,0,2.085-1.013,3.9,3.9,0,0,0,0-4.892,2.654,2.654,0,0,0-4.171,0,3.9,3.9,0,0,0,0,4.892A2.745,2.745,0,0,0,10.109,19.847Zm3.06.128a5.715,5.715,0,0,0,0-7.178,4.023,4.023,0,0,0-3.06-1.486A4.026,4.026,0,0,0,7.051,12.8a5.719,5.719,0,0,0,0,7.178,4.025,4.025,0,0,0,3.06,1.488A4.017,4.017,0,0,0,13.169,19.975ZM49.342,4.741H17.162a.949.949,0,0,0-.719.352,1.337,1.337,0,0,0,0,1.688.949.949,0,0,0,.719.352h32.18a.949.949,0,0,0,.719-.352,1.337,1.337,0,0,0,0-1.688A.949.949,0,0,0,49.342,4.741Z" transform="translate(8.045 0)" fill-rule="evenodd"/>
    </g>
  </g>
</svg>
