<svg xmlns="http://www.w3.org/2000/svg" xmlns:xlink="http://www.w3.org/1999/xlink" width="48" height="48" viewBox="0 0 48 48"><defs><clipPath id="b"><rect width="48" height="48"/></clipPath></defs><g id="a" clip-path="url(#b)"><g transform="translate(-25.5 -49.21)"><g transform="translate(25.8 50.21)"><path d="M46.739,65.541a1.755,1.755,0,1,1-1.241.514A1.752,1.752,0,0,1,46.739,65.541ZM44.48,58.02a1.016,1.016,0,1,1-2.031,0,4.285,4.285,0,1,1,6.171,3.856,1.486,1.486,0,0,0-.865,1.387v.825a1.016,1.016,0,1,1-2.031,0v-.825a3.53,3.53,0,0,1,2.007-3.212,2.263,2.263,0,0,0,.926-.835A2.214,2.214,0,0,0,49,58.02a2.259,2.259,0,1,0-4.517,0Zm2.259-7.81a11.171,11.171,0,0,1,9.269,17.427l.652,2.433a1.014,1.014,0,0,1-1.241,1.241l-2.433-.652a11.179,11.179,0,1,1-6.247-20.45Zm6.469,4.711A9.149,9.149,0,1,0,52.15,68.772a1.013,1.013,0,0,1,.9-.194l1.2.32-.32-1.2a1.018,1.018,0,0,1,.166-.865,9.157,9.157,0,0,0-.884-11.918Z" transform="translate(-25.8 -50.21)" fill="#08265d"/><path d="M46.333,82.342a1.016,1.016,0,0,1,0-2.031h5.144a1.014,1.014,0,0,0,1.016-1.016v-.964a1.014,1.014,0,0,0-1.016-1.016H43.456a6.563,6.563,0,0,0-2.207.458A16.792,16.792,0,0,0,38.7,79l-4.09,2.279v9.328l2.363-1.818a5.978,5.978,0,0,1,.865-.584,2.709,2.709,0,0,1,1.289-.332H55.144a1.1,1.1,0,0,0,.241-.023l.024-.007a.993.993,0,0,0,.242-.1L70.963,78.9a1.025,1.025,0,0,0,.375-1.39l-.482-.834a.841.841,0,0,0-.525-.394,1.672,1.672,0,0,0-1.012.087L56.984,81.113a1.011,1.011,0,1,1-.722-1.889L68.6,74.483a3.7,3.7,0,0,1,2.258-.158,2.823,2.823,0,0,1,1.756,1.337l.482.834a3.051,3.051,0,0,1-1.113,4.161L56.666,89.5a2.942,2.942,0,0,1-.734.311l-.051.012a3.008,3.008,0,0,1-.737.09H39.128a.741.741,0,0,0-.345.095,4.5,4.5,0,0,0-.579.4L34.21,93.468l-.031.023a3.076,3.076,0,0,1-.462.592,3.041,3.041,0,0,1-2.153.9H28.847A3.059,3.059,0,0,1,25.8,91.934V80.845A3.059,3.059,0,0,1,28.847,77.8h2.716a3.037,3.037,0,0,1,2.149.894,3.09,3.09,0,0,1,.428.535L37.7,77.241A18.952,18.952,0,0,1,40.55,75.87a8.554,8.554,0,0,1,2.906-.586h8.021a3.059,3.059,0,0,1,3.047,3.047v.964a3.059,3.059,0,0,1-3.047,3.047Zm-14.77-2.513H28.847a1.014,1.014,0,0,0-1.016,1.016v11.09a1.014,1.014,0,0,0,1.016,1.016h2.716a1.014,1.014,0,0,0,1.016-1.016V80.845a1.014,1.014,0,0,0-1.016-1.016Z" transform="translate(-26.1 -49.188)" fill="#08265d" stroke="#08265d" stroke-width="0.5"/></g></g></g></svg>