<svg xmlns="http://www.w3.org/2000/svg" xmlns:xlink="http://www.w3.org/1999/xlink" width="48" height="48" viewBox="0 0 48 48"><defs><clipPath id="b"><rect width="48" height="48"/></clipPath></defs><g id="a" clip-path="url(#b)"><g transform="translate(-2.991 -2.016)"><path d="M9.558,22.31a.616.616,0,0,1-1.232,0V10.367A6.866,6.866,0,0,1,15.29,3.641H43.38a6.866,6.866,0,0,1,6.963,6.726V32.439a6.866,6.866,0,0,1-6.963,6.726H41.987l-4.693,5.65a1.25,1.25,0,0,1-2.208-.707l-.2-4.945h-.653a.6.6,0,1,1,0-1.19h1.246a.607.607,0,0,1,.614.574l.22,5.527,4.872-5.844a.619.619,0,0,1,.508-.257h1.686a5.654,5.654,0,0,0,5.732-5.536V10.366A5.654,5.654,0,0,0,43.382,4.83l-28.092,0a5.654,5.654,0,0,0-5.732,5.536ZM20.4,34.3l-1.033,3.056a4.006,4.006,0,1,0-3.935-3.8l3.164-1A1.463,1.463,0,0,1,20.4,34.3Zm-1.425,4.217-.944,2.8a8.312,8.312,0,0,0,9.927-7.961,8.242,8.242,0,0,0-8.382-8.1,8.19,8.19,0,0,0-8.242,9.588l2.9-.912a5.394,5.394,0,1,1,4.746,4.584Zm-1.328,3.936-.958,2.839A13,13,0,0,0,28.55,42.024a11.962,11.962,0,0,0,0-17.331,13.007,13.007,0,0,0-17.943,0A11.986,11.986,0,0,0,7.22,36.145l2.94-.926a9.382,9.382,0,0,1,9.419-11.148,9.455,9.455,0,0,1,9.614,9.286,9.533,9.533,0,0,1-11.542,9.1Zm-1.342,3.972c8.741,2.028,17.187-4.35,17.187-13.07A13.688,13.688,0,0,0,19.577,19.913c-9.028,0-15.631,8.159-13.531,16.6l-1.633.515A1.263,1.263,0,0,0,4.6,39.418l6.031,2.4a.335.335,0,0,1,.185.179L13.3,47.826c.486,1.138,2.107,1.264,2.473.179Zm-1.674,1.131q2.3-6.811,4.6-13.621c.024-.068-.185-.27-.256-.247l-14.1,4.443a.327.327,0,0,0,.189.19l6.031,2.4a1.541,1.541,0,0,1,.854.825l2.489,5.825a.322.322,0,0,0,.195.181ZM14.5,11.2h29.67a.6.6,0,1,0,0-1.19l-29.67,0a.6.6,0,1,0,0,1.192ZM35.153,32.795h9.018a.6.6,0,1,0,0-1.19H35.153a.6.6,0,1,0,0,1.19Zm-2.568-7.2H44.173a.6.6,0,1,0,0-1.19H32.585a.6.6,0,1,0,0,1.19ZM14.5,18.4h29.67a.6.6,0,1,0,0-1.19H14.5a.6.6,0,1,0,0,1.19Z" transform="translate(0 0)" fill="#fff" stroke="#fff" stroke-width="0.8" fill-rule="evenodd"/></g></g></svg>