<svg xmlns="http://www.w3.org/2000/svg" xmlns:xlink="http://www.w3.org/1999/xlink" width="48" height="48" viewBox="0 0 48 48"><defs><clipPath id="b"><rect width="48" height="48"/></clipPath></defs><g id="a" clip-path="url(#b)"><g transform="translate(-2.997 -0.05)"><path d="M27,40.223A25.36,25.36,0,0,1,3.113,24.258a1.846,1.846,0,0,1,0-1.292A25.36,25.36,0,0,1,27,7,25.36,25.36,0,0,1,50.88,22.966a1.846,1.846,0,0,1,0,1.292A25.36,25.36,0,0,1,27,40.223ZM6.842,23.612A21.724,21.724,0,0,0,27,36.532a21.724,21.724,0,0,0,20.155-12.92A21.724,21.724,0,0,0,27,10.692,21.724,21.724,0,0,0,6.842,23.612Z" transform="translate(0 0.803)" fill="#08265d"/><path d="M20.228,29.457a9.228,9.228,0,1,1,9.228-9.228,9.228,9.228,0,0,1-9.228,9.228Zm0-14.766a5.537,5.537,0,1,0,5.537,5.537A5.537,5.537,0,0,0,20.228,14.691Z" transform="translate(6.768 4.187)" fill="#08265d"/><path d="M7.851,42.872a1.846,1.846,0,0,1-1.31-3.156L39.763,6.493a1.846,1.846,0,0,1,2.6,2.6L9.143,42.318A1.846,1.846,0,0,1,7.851,42.872Z" transform="translate(2.535 0)" fill="#08265d"/></g></g></svg>