<svg xmlns="http://www.w3.org/2000/svg" xmlns:xlink="http://www.w3.org/1999/xlink" width="48" height="48" viewBox="0 0 48 48"><defs><clipPath id="b"><rect width="48" height="48"/></clipPath></defs><g id="a" clip-path="url(#b)"><g transform="translate(-6.707 -3.65)"><path d="M49.577,9.315H48.5V8.261A4.664,4.664,0,0,0,43.8,3.65l-31.9,0a4.664,4.664,0,0,0-4.7,4.611v33.11a4.664,4.664,0,0,0,4.7,4.611h1.075v1.052a4.664,4.664,0,0,0,4.7,4.611l31.9,0a4.664,4.664,0,0,0,4.7-4.611l0-33.11a4.664,4.664,0,0,0-4.7-4.611ZM11.9,42.783a1.427,1.427,0,0,1-1.44-1.412V8.265A1.429,1.429,0,0,1,11.9,6.853l31.9,0a1.427,1.427,0,0,1,1.44,1.412V9.315l-27.565,0a4.664,4.664,0,0,0-4.7,4.611V42.785H11.9Zm39.12,4.247a1.429,1.429,0,0,1-1.44,1.412l-31.9,0a1.427,1.427,0,0,1-1.44-1.412V13.928a1.427,1.427,0,0,1,1.44-1.412l31.9,0a1.427,1.427,0,0,1,1.44,1.412Z" transform="translate(0 0)" fill="#08265d"/><path d="M53.973,52.406H38.879a1.563,1.563,0,1,0,0,3.125H53.973a1.563,1.563,0,0,0,0-3.125Z" transform="translate(-11.716 -24.012)" fill="#08265d"/><path d="M53.973,39.723H38.879a1.563,1.563,0,1,0,0,3.125H53.973a1.563,1.563,0,0,0,0-3.125Z" transform="translate(-11.716 -17.832)" fill="#08265d"/><path d="M53.973,65.094H38.879a1.563,1.563,0,1,0,0,3.125H53.973a1.563,1.563,0,0,0,0-3.125Z" transform="translate(-11.716 -30.194)" fill="#08265d"/></g></g></svg>