<svg xmlns="http://www.w3.org/2000/svg" xmlns:xlink="http://www.w3.org/1999/xlink" width="48" height="48" viewBox="0 0 48 48"><defs><clipPath id="b"><rect width="48" height="48"/></clipPath></defs><g id="a" clip-path="url(#b)"><g transform="translate(-3.129 -3.125)"><path d="M49.373,21.5H45.791a19.093,19.093,0,0,0-1.571-3.8l2.532-2.532a1.6,1.6,0,0,0,0-2.255L41.17,7.341a1.6,1.6,0,0,0-2.255,0L36.384,9.872a19.328,19.328,0,0,0-3.8-1.571V4.72a1.594,1.594,0,0,0-1.595-1.595H27.047a1.595,1.595,0,0,0,0,3.189H29.4V9.536a1.6,1.6,0,0,0,1.246,1.557,16.116,16.116,0,0,1,5.139,2.125A1.6,1.6,0,0,0,37.765,13l2.276-2.276,3.327,3.327-2.276,2.276a1.6,1.6,0,0,0-.219,1.981A16.121,16.121,0,0,1,43,23.445a1.593,1.593,0,0,0,1.557,1.246h3.221v4.7H44.554A1.6,1.6,0,0,0,43,30.641a16.116,16.116,0,0,1-2.125,5.139,1.593,1.593,0,0,0,.219,1.981l2.276,2.276-3.327,3.327-2.276-2.276a1.6,1.6,0,0,0-1.981-.219,16.121,16.121,0,0,1-5.139,2.125A1.593,1.593,0,0,0,29.4,44.551v3.221h-4.7V44.551a1.6,1.6,0,0,0-1.246-1.557,16.116,16.116,0,0,1-5.139-2.125,1.592,1.592,0,0,0-1.981.219l-2.276,2.276-3.327-3.327L13,37.761a1.6,1.6,0,0,0,.219-1.981A16.121,16.121,0,0,1,11.1,30.641,1.593,1.593,0,0,0,9.539,29.4H6.318V27.043a1.595,1.595,0,1,0-3.189,0V30.99a1.594,1.594,0,0,0,1.595,1.595H8.305a19.092,19.092,0,0,0,1.571,3.8L7.345,38.912a1.6,1.6,0,0,0,0,2.255l5.582,5.582a1.6,1.6,0,0,0,2.255,0l2.532-2.532a19.328,19.328,0,0,0,3.8,1.571v3.582A1.594,1.594,0,0,0,23.1,50.964H31a1.594,1.594,0,0,0,1.595-1.595V45.787a19.092,19.092,0,0,0,3.8-1.571l2.532,2.532a1.6,1.6,0,0,0,2.255,0l5.582-5.582a1.6,1.6,0,0,0,0-2.255L44.222,36.38a19.328,19.328,0,0,0,1.571-3.8h3.582A1.594,1.594,0,0,0,50.97,30.99V23.1A1.594,1.594,0,0,0,49.375,21.5Z" transform="translate(0 0)" fill="#ffe610"/><path d="M13.555,23.685H24.048a3.141,3.141,0,0,0,3.138-3.138V12.669a3.141,3.141,0,0,0-3.138-3.138h-.14V8.376a5.107,5.107,0,0,0-10.214,0V9.532h-.14a3.141,3.141,0,0,0-3.138,3.138v7.878a3.141,3.141,0,0,0,3.138,3.138ZM16.882,8.374a1.918,1.918,0,0,1,3.835,0V9.53H16.88V8.374Zm-1.674,4.34c.028,0,.054.008.082.008h7.027a1.546,1.546,0,0,0,.363-.046L24,12.67V20.5l-10.389.052-.052-7.826,1.651-.008Z" transform="translate(-3.569 -0.07)" fill="#ffe610"/><path d="M26.9,28.11a1.354,1.354,0,1,1-2.709,0,1.354,1.354,0,1,1,2.709,0" transform="translate(-10.314 -11.572)" fill="#ffe610"/><path d="M38.316,47.3a9,9,0,0,1-8.986-8.986,1.595,1.595,0,1,0-3.189,0A12.175,12.175,0,1,0,38.316,26.141a1.595,1.595,0,1,0,0,3.189,8.986,8.986,0,1,1,0,17.972Z" transform="translate(-11.269 -11.271)" fill="#ffe610"/></g></g></svg>