<svg xmlns="http://www.w3.org/2000/svg" xmlns:xlink="http://www.w3.org/1999/xlink" width="48" height="48" viewBox="0 0 48 48"><defs><clipPath id="b"><rect width="48" height="48"/></clipPath></defs><g id="a" clip-path="url(#b)"><g transform="translate(-10.86 -10.566)"><path d="M55.672,31.639a3.06,3.06,0,0,0-3.06,3.06,17.755,17.755,0,1,1-9.235-15.57l-3.488,3.488a1.341,1.341,0,0,0,.949,2.288H52.5a1.341,1.341,0,0,0,1.341-1.341l0-11.654a1.341,1.341,0,0,0-2.288-.949l-3.763,3.763a2.972,2.972,0,0,0-.557-.44A23.869,23.869,0,1,0,58.727,34.7a3.06,3.06,0,0,0-3.06-3.06Z" transform="translate(0 0)" fill="#08265d"/></g></g></svg>