<svg xmlns="http://www.w3.org/2000/svg" xmlns:xlink="http://www.w3.org/1999/xlink" width="255" height="221" viewBox="0 0 255 221"><defs><linearGradient id="a" x1="0.569" y1="0.154" x2="0.185" y2="0.842" gradientUnits="objectBoundingBox"><stop offset="0" stop-color="#c28a10"/><stop offset="0.362" stop-color="#dfaa18"/><stop offset="0.531" stop-color="#ffe570"/><stop offset="0.596" stop-color="#ffdd47"/><stop offset="0.738" stop-color="#dfaa18"/><stop offset="1" stop-color="#dfaa18"/></linearGradient><linearGradient id="b" x1="0.5" y1="0" x2="0.5" y2="1" xlink:href="#a"/><clipPath id="d"><rect width="255" height="221"/></clipPath></defs><g id="c" clip-path="url(#d)"><g transform="translate(13.009 -672.629)"><g transform="translate(-13.009 674.629)"><g transform="translate(39.688)"><path d="M47.77,706.588c-16.757,1.031-25.656,7.855-30.657,21.057-.058-.652-8.41,3.3-8.408,2.638.132-31.068,13.283-54.343,33.8-55.606,18.956-1.166,31.4,18.812,35.324,44.99C68.494,711.173,59.473,705.868,47.77,706.588Z" transform="translate(-8.705 -674.629)" fill="#b56f0e"/></g><path d="M7.424,727.121c3.925-37.822,17.808-46.641,18.359-47.863C13.92,705.6,40.618,750.1,62.856,768.581a333.165,333.165,0,0,0,74.016,46.461c13.657,6.26,74.306,29.857,88.716,34.269-2.017,1.977-4.1,3.885-6.283,5.689a80.491,80.491,0,0,1-10.493,7.4,67.378,67.378,0,0,1-11.664,5.459c-4.018,1.423-8.625,1.972-12.855,2.579-16.77-6.765-79.077-32.644-94.487-41.97a330.183,330.183,0,0,1-35.826-25.045c-11.348-9.117-22.466-18.869-31.228-30.391C12.655,759.754,5.7,743.736,7.424,727.121Z" transform="translate(29.186 -670.916)" fill="url(#a)"/><g transform="translate(0 1.42)"><path d="M113.685,729.935c5.39,36.992-16.736,93.806-55.194,141.507-9.506,11.791-18.482,22.411-44.084,18.861-4.062-.564-7.6-3.01-11.4-4.538s-7.579-3.063-11.355-4.629c-1.231-.51-3.4-1.968-4.666-2.009,50.775,2.258,93.087-123,95.9-138.186,3.869-20.852,3.447-54.438-12.168-65.523C91.682,684.137,111.113,712.291,113.685,729.935Z" transform="translate(13.009 -675.417)" fill="url(#b)"/></g></g></g></g></svg>