<svg xmlns="http://www.w3.org/2000/svg" xmlns:xlink="http://www.w3.org/1999/xlink" width="48" height="48" viewBox="0 0 48 48"><defs><clipPath id="b"><rect width="48" height="48"/></clipPath></defs><g id="a" clip-path="url(#b)"><g transform="translate(-10.623 -11.354)"><path d="M21.735,21.47v0a1.182,1.182,0,0,1-1.16,1.174l-6.6,0L21.735,14.9ZM18.2,29.982h-.014a1.177,1.177,0,0,0,0,2.353h14.1a1.177,1.177,0,0,0,0-2.353Zm.007,7.683h-.021a1.175,1.175,0,0,0,0,2.351H28.872a1.177,1.177,0,0,0,0-2.353Zm0,7.68h-.017a1.175,1.175,0,0,0,0,2.351l8.909,0a1.177,1.177,0,0,0,0-2.353ZM48.76,22.554h0a1.5,1.5,0,0,1,.725.189l4.968,2.87a1.493,1.493,0,0,1,.529,2.022L43.343,47.811,37.42,49.4,35.828,43.45,47.47,23.3a1.5,1.5,0,0,1,1.29-.742Zm0-2.355a3.838,3.838,0,0,0-3.336,1.925l-11.883,20.6a1.177,1.177,0,0,0-.118.9l2.018,7.529a1.178,1.178,0,0,0,.55.718,1.19,1.19,0,0,0,.591.158,1.231,1.231,0,0,0,.307-.04l7.529-2.018a1.187,1.187,0,0,0,.765-.64L57.024,28.819a3.848,3.848,0,0,0-1.4-5.252l-4.957-2.861a3.828,3.828,0,0,0-1.909-.508ZM21.34,12.357h0a1.065,1.065,0,0,0-.742.34l-8.84,8.84a1.333,1.333,0,0,0-.335.995l0,31.812a3.538,3.538,0,0,0,3.523,3.539l29.321,0a3.534,3.534,0,0,0,3.523-3.537v-5l-.6,1.056a3.467,3.467,0,0,1-1.753,1.621l0,2.329a1.186,1.186,0,0,1-1.16,1.179l-29.336,0a1.183,1.183,0,0,1-1.16-1.177V25l6.785,0a3.535,3.535,0,0,0,3.525-3.537V14.71l20.188,0a1.181,1.181,0,0,1,1.158,1.177v3.029a6.138,6.138,0,0,1,2.353-.9l0-2.119a3.513,3.513,0,0,0-3.485-3.534Z" transform="translate(0 0)" fill="#08265d" stroke="#08265d" stroke-width="0.5"/></g></g></svg>