<svg xmlns="http://www.w3.org/2000/svg" xmlns:xlink="http://www.w3.org/1999/xlink" width="48" height="48" viewBox="0 0 48 48"><defs><clipPath id="b"><rect width="48" height="48"/></clipPath></defs><g id="a" clip-path="url(#b)"><g transform="translate(0.37 0.371)"><g transform="translate(0)"><path d="M60.874,35.466A2.082,2.082,0,0,0,59,37.739c.063.625.09,1.258.09,1.89a19.44,19.44,0,1,1-11.3-17.673,2.083,2.083,0,1,0,1.751-3.781A23.387,23.387,0,0,0,39.629,16,23.629,23.629,0,1,0,63.258,39.629a22.693,22.693,0,0,0-.111-2.286A2.087,2.087,0,0,0,60.874,35.466Z" transform="translate(-16 -16)" fill="#41a839"/><path d="M43.446,44.4l-6.887-6.887a2.084,2.084,0,1,0-2.947,2.947l8.34,8.34a2.081,2.081,0,0,0,2.926.021L67.812,26.579a2.081,2.081,0,1,0-2.9-2.988Z" transform="translate(-21.186 -18.135)" fill="#41a839"/></g></g></g></svg>