<svg xmlns="http://www.w3.org/2000/svg" xmlns:xlink="http://www.w3.org/1999/xlink" width="77" height="77" viewBox="0 0 77 77"><defs><clipPath id="b"><rect width="77" height="77"/></clipPath></defs><g id="a" clip-path="url(#b)"><g transform="translate(0)"><path d="M89.113,47.716a3.393,3.393,0,0,0-3.057,3.7c.1,1.019.147,2.049.147,3.08A31.673,31.673,0,1,1,67.792,25.7a3.394,3.394,0,1,0,2.853-6.16A38.1,38.1,0,0,0,54.5,16,38.5,38.5,0,1,0,93,54.5a36.971,36.971,0,0,0-.181-3.725A3.4,3.4,0,0,0,89.113,47.716Z" transform="translate(-16 -16)" fill="#ffc107"/><path d="M50.018,57.864,38.8,46.643a3.395,3.395,0,0,0-4.8,4.8L47.584,65.031a3.39,3.39,0,0,0,4.767.034L89.717,28.832A3.391,3.391,0,1,0,85,23.963Z" transform="translate(-13.75 -15.074)" fill="#41a839"/></g></g></svg>