<svg xmlns="http://www.w3.org/2000/svg" xmlns:xlink="http://www.w3.org/1999/xlink" width="48" height="48" viewBox="0 0 48 48"><defs><clipPath id="b"><rect width="48" height="48"/></clipPath></defs><g id="a" clip-path="url(#b)"><g transform="translate(-3.301 -6.25)"><path d="M28.536,52.536a1.714,1.714,0,0,1-1.714,1.714H11.393A5.15,5.15,0,0,1,6.25,49.107V11.393A5.15,5.15,0,0,1,11.393,6.25H33.679a1.716,1.716,0,0,1,1.213.5L45.177,17.037a1.716,1.716,0,0,1,.5,1.213v3.429a1.714,1.714,0,1,1-3.429,0V18.959L32.969,9.679H11.393a1.717,1.717,0,0,0-1.714,1.714V49.107a1.717,1.717,0,0,0,1.714,1.714H26.821a1.714,1.714,0,0,1,1.714,1.714ZM14.821,37.107a1.714,1.714,0,1,0,0,3.429h6.857a1.714,1.714,0,1,0,0-3.429Zm12-6.857a1.714,1.714,0,0,0-1.714-1.714H14.821a1.714,1.714,0,0,0,0,3.429H25.107A1.714,1.714,0,0,0,26.821,30.25Zm13.714,8.571a1.714,1.714,0,0,0-1.714,1.714v5.143a1.714,1.714,0,1,0,3.429,0V40.536A1.714,1.714,0,0,0,40.536,38.821ZM33.679,21.679a1.714,1.714,0,0,0-1.714-1.714H14.821a1.714,1.714,0,1,0,0,3.429H31.964A1.714,1.714,0,0,0,33.679,21.679ZM54.25,40.536A13.714,13.714,0,1,1,40.536,26.821,13.73,13.73,0,0,1,54.25,40.536Zm-3.429,0A10.286,10.286,0,1,0,40.536,50.821,10.3,10.3,0,0,0,50.821,40.536Zm-11.5-6.36a1.721,1.721,0,0,0,2.434,2.434c.069-.086.137-.171.206-.274a.953.953,0,0,0,.154-.291,1.09,1.09,0,0,0,.1-.309,2.323,2.323,0,0,0,.034-.343,1.714,1.714,0,0,0-2.931-1.217Z" transform="translate(-2.949)" fill="#08265d"/></g></g></svg>