<svg xmlns="http://www.w3.org/2000/svg" xmlns:xlink="http://www.w3.org/1999/xlink" width="48" height="27" viewBox="0 0 48 27"><defs><clipPath id="b"><rect width="48" height="27"/></clipPath></defs><g id="a" clip-path="url(#b)"><g transform="translate(-8.689 56.767) rotate(-90)"><g transform="translate(29.955 8.899)"><path d="M55.757,984.956a2.218,2.218,0,0,0-.624-1.326l-20.6-21.51a2.73,2.73,0,0,0-2.464-.821,2.511,2.511,0,0,0-1.981,1.557,2.163,2.163,0,0,0,.561,2.316l19.135,19.984L30.647,1005.14a2.162,2.162,0,0,0-.561,2.316,2.511,2.511,0,0,0,1.981,1.557,2.73,2.73,0,0,0,2.464-.822l20.6-21.51A2.184,2.184,0,0,0,55.757,984.956Z" transform="translate(-29.955 -961.261)" fill="#08265d"/></g></g></g></svg>