<svg xmlns="http://www.w3.org/2000/svg" xmlns:xlink="http://www.w3.org/1999/xlink" width="48" height="48" viewBox="0 0 48 48"><defs><clipPath id="b"><rect width="48" height="48"/></clipPath></defs><g id="a" clip-path="url(#b)"><g transform="translate(1 1.075)"><path d="M12.462,2.939a1.808,1.808,0,0,0-1.8,1.794V6.021H7.4A3.923,3.923,0,0,0,3.484,9.928l0,30.811a3.92,3.92,0,0,0,3.921,3.9h17.34v0a.723.723,0,1,0,0-1.447H7.407a2.44,2.44,0,0,1-2.468-2.455V15.213H42.484V24.16a.723.723,0,0,0,.725.722.723.723,0,0,0,.727-.722V9.926a3.923,3.923,0,0,0-3.921-3.908H36.756V4.732a1.808,1.808,0,0,0-1.8-1.794H32.534a1.808,1.808,0,0,0-1.8,1.794V6.019l-14.056,0V4.734a1.808,1.808,0,0,0-1.8-1.794Zm0,1.447h2.423a.336.336,0,0,1,.349.348V8.758a.331.331,0,0,1-.349.342H12.462a.326.326,0,0,1-.343-.342V4.734A.332.332,0,0,1,12.462,4.386Zm20.074,0h2.425a.331.331,0,0,1,.343.348V8.758a.327.327,0,0,1-.343.342H32.536a.33.33,0,0,1-.347-.342V4.734a.335.335,0,0,1,.347-.348ZM7.4,7.467h3.261V8.758a1.8,1.8,0,0,0,1.8,1.79h2.423a1.8,1.8,0,0,0,1.8-1.79V7.467h14.06V8.758a1.8,1.8,0,0,0,1.8,1.79h2.425a1.8,1.8,0,0,0,1.8-1.79V7.467H40.02a2.443,2.443,0,0,1,2.466,2.461v3.84l-37.547,0V9.926A2.444,2.444,0,0,1,7.407,7.466Zm2.848,11.617a2.219,2.219,0,0,0-2.2,2.211v4.639a2.219,2.219,0,0,0,2.2,2.211h4.584a2.214,2.214,0,0,0,2.194-2.211V21.3a2.214,2.214,0,0,0-2.194-2.211Zm11.164,0A2.214,2.214,0,0,0,19.223,21.3v4.639a2.214,2.214,0,0,0,2.194,2.211h4.59A2.214,2.214,0,0,0,28.2,25.935V21.3a2.214,2.214,0,0,0-2.194-2.211Zm11.167,0A2.213,2.213,0,0,0,30.392,21.3v2.622l0,0a.726.726,0,0,0,1.453,0V21.294a.736.736,0,0,1,.739-.765h4.59a.735.735,0,0,1,.739.765v1.516a.727.727,0,1,0,1.455,0V21.294a2.214,2.214,0,0,0-2.194-2.211ZM10.253,20.531h4.584a.736.736,0,0,1,.741.765v4.639a.737.737,0,0,1-.741.765H10.253a.741.741,0,0,1-.747-.765V21.3A.742.742,0,0,1,10.253,20.531Zm11.164,0h4.59a.736.736,0,0,1,.741.765v4.639a.737.737,0,0,1-.741.765h-4.59a.736.736,0,0,1-.741-.765V21.3A.737.737,0,0,1,21.417,20.531ZM36.9,24.264A12.483,12.483,0,1,0,49.434,36.747,12.521,12.521,0,0,0,36.9,24.264Zm0,1.447A11.036,11.036,0,1,1,25.814,36.747,11.049,11.049,0,0,1,36.9,25.71Zm-.052,3.831v0a.731.731,0,0,0-.65.394l-2.012,3.919-4.37.688,0,0a.728.728,0,0,0-.579.49.718.718,0,0,0,.178.736l3.128,3.114-.693,4.347v0a.722.722,0,0,0,.289.7.731.731,0,0,0,.756.061l3.948-1.994,3.944,2a.726.726,0,0,0,1.05-.755l-.689-4.346,3.131-3.112a.718.718,0,0,0,.178-.734.726.726,0,0,0-.577-.49l-4.37-.692-2.012-3.921v0a.729.729,0,0,0-.646-.394Zm-26.591.722a2.219,2.219,0,0,0-2.2,2.211v4.639a2.218,2.218,0,0,0,2.2,2.209h4.584a2.213,2.213,0,0,0,2.194-2.209V32.475a2.214,2.214,0,0,0-2.194-2.211Zm11.164,0a2.214,2.214,0,0,0-2.194,2.211v4.639a2.213,2.213,0,0,0,2.194,2.209h1.517a.73.73,0,0,0,.517-.211.724.724,0,0,0,0-1.026.735.735,0,0,0-.515-.209H21.417a.736.736,0,0,1-.741-.763V32.475a.736.736,0,0,1,.741-.763h2.611v0a.723.723,0,0,0,.515-1.233.73.73,0,0,0-.515-.213Zm-11.2,1.449h4.625a.736.736,0,0,1,.741.763v4.639a.736.736,0,0,1-.741.763H10.253a.741.741,0,0,1-.747-.763V32.475a.74.74,0,0,1,.706-.763Zm26.628.138,1.534,2.987a.726.726,0,0,0,.533.384l3.33.528-2.383,2.373a.719.719,0,0,0-.206.622l.525,3.31-3-1.522a.728.728,0,0,0-.658,0L33.5,42.049l.527-3.308h0a.715.715,0,0,0-.2-.624l-2.383-2.373,3.334-.523a.733.733,0,0,0,.533-.386Z" transform="translate(-3.484 -2.937)" fill="#08265d" stroke="#08265d" stroke-width="1"/></g></g></svg>