<svg xmlns="http://www.w3.org/2000/svg" xmlns:xlink="http://www.w3.org/1999/xlink" width="48" height="48" viewBox="0 0 48 48"><defs><clipPath id="b"><rect width="48" height="48"/></clipPath></defs><g id="a" clip-path="url(#b)"><g transform="translate(-4.255 -6.225)"><path d="M29.38,20.075V18.954h-1.5v1.122a10.234,10.234,0,0,0-9.439,9.439H17.315v1.5h1.124a10.234,10.234,0,0,0,9.439,9.439V41.59h1.5V40.456a10.234,10.234,0,0,0,9.439-9.439h1.124v-1.5H38.82A10.234,10.234,0,0,0,29.38,20.075Zm0,18.874V37.561h-1.5V38.95a8.731,8.731,0,0,1-7.933-7.933h1.389v-1.5H19.945a8.731,8.731,0,0,1,7.933-7.933V22.97h1.5V21.581a8.731,8.731,0,0,1,7.933,7.933H35.925v1.5h1.389A8.731,8.731,0,0,1,29.38,38.95Zm-.751-13.816a5.138,5.138,0,1,0,5.142,5.132,5.141,5.141,0,0,0-5.142-5.132Zm0,8.775a3.637,3.637,0,1,1,3.643-3.643A3.648,3.648,0,0,1,28.629,33.908Zm23.247-5.062A29.158,29.158,0,0,0,28.7,16.921c-.123,0-.246,0-.369,0A28.511,28.511,0,0,0,5.339,29.455a1.916,1.916,0,0,0,.035,2.234s0,0,0,.006A29.159,29.159,0,0,0,28.555,43.62c.123,0,.246,0,.369,0a28.541,28.541,0,0,0,23-12.541,1.933,1.933,0,0,0-.045-2.234Zm-1.2,1.391A27.044,27.044,0,0,1,28.9,42.119,27.579,27.579,0,0,1,6.586,30.8a.425.425,0,0,1-.008-.5,27,27,0,0,1,21.775-11.88c.117,0,.232,0,.349,0A27.654,27.654,0,0,1,50.67,29.738a.422.422,0,0,1,.01.5ZM27.591,14.616V10.4a.751.751,0,1,1,1.5,0v4.215a.751.751,0,1,1-1.5,0ZM37.217,15.9l2.837-3.663a.75.75,0,0,1,1.186.919L38.4,16.818a.751.751,0,0,1-1.188-.919ZM15.432,13.155a.749.749,0,1,1,1.183-.919L19.463,15.9a.75.75,0,0,1-1.183.921l-2.847-3.663Zm13.661,32.76v4.227a.751.751,0,0,1-1.5,0V45.916a.751.751,0,0,1,1.5,0Zm12.149,1.46a.75.75,0,1,1-1.186.919L37.22,44.642a.75.75,0,1,1,1.186-.919ZM19.465,44.644,16.618,48.3a.751.751,0,0,1-1.186-.921l2.847-3.653a.751.751,0,0,1,1.186.921ZM42.2,9.2a.751.751,0,0,1,.751-.751H49.7a.751.751,0,0,1,.751.751v7.56a.751.751,0,0,1-1.5,0V9.947H42.955A.751.751,0,0,1,42.2,9.2Zm8.245,34.578v7.56a.751.751,0,0,1-.751.751H42.954a.751.751,0,1,1,0-1.5h5.993v-6.81a.751.751,0,1,1,1.5,0ZM6.81,16.757V9.2a.751.751,0,0,1,.751-.751H14.3a.751.751,0,1,1,0,1.5H8.312v6.81a.751.751,0,1,1-1.5,0Zm8.245,34.578a.751.751,0,0,1-.751.751H7.561a.751.751,0,0,1-.751-.751v-7.56a.751.751,0,0,1,1.5,0v6.81H14.3a.751.751,0,0,1,.751.751Z" transform="translate(0 0)" fill="#fff" stroke="#fff" stroke-width="1"/></g></g></svg>