<svg xmlns="http://www.w3.org/2000/svg" xmlns:xlink="http://www.w3.org/1999/xlink" width="48" height="48" viewBox="0 0 48 48"><defs><clipPath id="b"><rect width="48" height="48"/></clipPath></defs><g id="a" clip-path="url(#b)"><g transform="translate(0.883 0.883)"><path d="M23.271,0A23.271,23.271,0,1,0,46.542,23.271,23.294,23.294,0,0,0,23.271,0ZM41.157,13.96H32.125A37.967,37.967,0,0,0,30.495,7.4a20.4,20.4,0,0,0-1.6-3.485A20.152,20.152,0,0,1,41.157,13.96ZM29.752,23.271a56.351,56.351,0,0,1-.369,6.206H17.719a56.35,56.35,0,0,1-.369-6.206,56.027,56.027,0,0,1,.369-6.209H29.382A55.676,55.676,0,0,1,29.752,23.271ZM21.713,4.26a2.618,2.618,0,0,1,1.76-1.149c.071,0,.14.01.209.012a2.716,2.716,0,0,1,1.706,1.136,13.953,13.953,0,0,1,2.187,4.179,34.259,34.259,0,0,1,1.395,5.521H18.128a34.405,34.405,0,0,1,1.4-5.521A14.078,14.078,0,0,1,21.713,4.26ZM18.3,3.742A20.074,20.074,0,0,0,16.6,7.4a38.067,38.067,0,0,0-1.63,6.564H5.381A20.132,20.132,0,0,1,18.3,3.742ZM3.1,23.271a20.221,20.221,0,0,1,.979-6.209H14.559a61.485,61.485,0,0,0,0,12.415H4.081A20.2,20.2,0,0,1,3.1,23.271Zm2.282,9.311h9.59a38.041,38.041,0,0,0,1.63,6.573A19.778,19.778,0,0,0,18.3,42.8,20.143,20.143,0,0,1,5.384,32.582Zm20,9.7A2.723,2.723,0,0,1,23.7,43.414c-.076,0-.148.012-.221.012a2.608,2.608,0,0,1-1.76-1.146,13.922,13.922,0,0,1-2.187-4.17,34.392,34.392,0,0,1-1.4-5.53H28.975a34.246,34.246,0,0,1-1.4,5.53A13.931,13.931,0,0,1,25.388,42.282Zm3.512.349a20.362,20.362,0,0,0,1.594-3.476,38.032,38.032,0,0,0,1.633-6.573h9.026A20.155,20.155,0,0,1,28.9,42.631ZM32.54,29.477a60.6,60.6,0,0,0,.316-6.206,60.64,60.64,0,0,0-.316-6.209h9.916a20.173,20.173,0,0,1,0,12.415Z" fill="#fff"/></g></g></svg>