<svg xmlns="http://www.w3.org/2000/svg" xmlns:xlink="http://www.w3.org/1999/xlink" width="48" height="48" viewBox="0 0 48 48"><defs><clipPath id="b"><rect width="48" height="48"/></clipPath></defs><g id="a" clip-path="url(#b)"><path d="M42.361,0A42.361,42.361,0,1,1,0,42.361,42.361,42.361,0,0,1,42.361,0Z" transform="translate(-12.957 -18)" fill="none"/><path d="M6.512,25.187A18.961,18.961,0,0,1,25.251,6.012a18.961,18.961,0,0,1,18.74,19.176,18.961,18.961,0,0,1-18.74,19.176A18.331,18.331,0,0,1,15.238,41.4a2.162,2.162,0,0,0-1.81-.256L7.08,43.081l2.39-5.722a2.3,2.3,0,0,0-.154-2.076A19.406,19.406,0,0,1,6.512,25.187ZM25.251,1.5C12.466,1.5,2.1,12.105,2.1,25.187A24.023,24.023,0,0,0,4.979,36.631l-3.8,9.1a2.3,2.3,0,0,0,.382,2.388,2.172,2.172,0,0,0,2.276.66l9.92-3.029a22.649,22.649,0,0,0,11.5,3.123C38.036,48.875,48.4,38.27,48.4,25.187S38.036,1.5,25.251,1.5Zm5.054,28.611-2.9,2.088a20.646,20.646,0,0,1-4.362-3.435,22.966,22.966,0,0,1-3.579-4.77l1.841-1.6a2.292,2.292,0,0,0,.52-2.78L19.481,15.1a2.209,2.209,0,0,0-1.547-1.159,2.17,2.17,0,0,0-1.849.519l-.7.621a6.09,6.09,0,0,0-1.842,6.434,27.3,27.3,0,0,0,6.381,10.435,22.933,22.933,0,0,0,10.435,6.328,5.588,5.588,0,0,0,5-1.236l1.3-1.087a2.286,2.286,0,0,0-.264-3.687l-3.7-2.256A2.163,2.163,0,0,0,30.305,30.111Z" transform="translate(-0.731 -1.206)" fill="#ffe610" fill-rule="evenodd"/></g></svg>