<svg xmlns="http://www.w3.org/2000/svg" xmlns:xlink="http://www.w3.org/1999/xlink" width="48" height="48" viewBox="0 0 48 48"><defs><clipPath id="b"><rect width="48" height="48"/></clipPath></defs><g id="a" clip-path="url(#b)"><g transform="translate(7.026)"><path d="M201.06,50.215H198.2V43.473a12.674,12.674,0,1,0-25.348,0v6.742H170a2,2,0,0,0-2,2V76.8a2,2,0,0,0,2,2H201.06a2,2,0,0,0,2-2V52.21a2,2,0,0,0-2-2Zm-25.51-6.742a9.978,9.978,0,0,1,19.955,0v6.742H175.551ZM200.359,76.1H170.7V52.911h29.663Z" transform="translate(-168 -30.799)" fill="#fff" stroke="#fff" stroke-width="0.5"/><path d="M304,304.47a4.388,4.388,0,0,0-3.2,7.392v2.706a3.2,3.2,0,0,0,6.4,0v-2.711a4.388,4.388,0,0,0-3.2-7.387Zm1.219,5.91-.458.366v3.823a.761.761,0,0,1-1.521,0v-3.823l-.458-.366a1.95,1.95,0,1,1,2.438,0Z" transform="translate(-286.469 -276.038)" fill="#fff" stroke="#fff" stroke-width="0.5"/></g></g></svg>