<svg xmlns="http://www.w3.org/2000/svg" xmlns:xlink="http://www.w3.org/1999/xlink" width="48" height="48" viewBox="0 0 48 48"><defs><clipPath id="b"><rect width="48" height="48"/></clipPath></defs><g id="a" clip-path="url(#b)"><g transform="translate(0 4)"><path d="M28.034,16.629A1.634,1.634,0,0,0,26.4,15H16.629A1.634,1.634,0,0,0,15,16.629V26.4a1.634,1.634,0,0,0,1.629,1.629H26.4A1.634,1.634,0,0,0,28.034,26.4Zm-3.258,8.146H18.258V18.258h6.517Z" transform="translate(-6.699 -10.112)" fill="#fff"/><path d="M28.034,36.4V26.629A1.634,1.634,0,0,0,26.4,25H16.629A1.634,1.634,0,0,0,15,26.629V36.4a1.634,1.634,0,0,0,1.629,1.629H26.4A1.634,1.634,0,0,0,28.034,36.4Zm-3.258-1.629H18.258V28.258h6.517Z" transform="translate(-6.699 -3.82)" fill="#fff"/><rect width="3.258" height="3.258" transform="translate(10.87 9.776)" fill="#fff"/><path d="M15.259,16.888a1.634,1.634,0,0,1,1.629-1.629H23.4V12H16.888A4.9,4.9,0,0,0,12,16.888V23.4h3.258Z" transform="translate(-12 -12)" fill="#fff"/><g transform="translate(25.005 0)"><path d="M38.034,16.629A1.634,1.634,0,0,0,36.4,15H26.629A1.634,1.634,0,0,0,25,16.629V26.4a1.634,1.634,0,0,0,1.629,1.629H36.4A1.634,1.634,0,0,0,38.034,26.4Zm-3.259,8.146H28.258V18.258h6.517Z" transform="translate(-23.342 -10.112)" fill="#fff"/><rect width="3.258" height="3.258" transform="translate(12.116 21.18)" fill="#fff"/><rect width="3.258" height="3.258" transform="translate(6.058 26.068)" fill="#fff"/><path d="M28.258,28.258h4.888V25H26.629A1.634,1.634,0,0,0,25,26.629v6.517h3.258Z" transform="translate(-24.263 -3.82)" fill="#fff"/><path d="M36.146,34.517V28H32.888v4.888H28v3.258h6.517A1.634,1.634,0,0,0,36.146,34.517Z" transform="translate(-21.075 -1.932)" fill="#fff"/><rect width="3.258" height="3.258" transform="translate(6.058 9.775)" fill="#fff"/><rect width="3.258" height="3.258" transform="translate(0 30.956)" fill="#fff"/><path d="M40.4,23.4V16.888A4.9,4.9,0,0,0,35.517,12H29v3.258h6.517a1.634,1.634,0,0,1,1.629,1.629V23.4Z" transform="translate(-17.41 -12)" fill="#fff"/></g><path d="M12,35.517A4.9,4.9,0,0,0,16.888,40.4H23.4V37.146H16.888a1.634,1.634,0,0,1-1.629-1.629V29H12Z" transform="translate(-12 -1.303)" fill="#fff"/></g></g></svg>