<svg xmlns="http://www.w3.org/2000/svg" xmlns:xlink="http://www.w3.org/1999/xlink" width="48" height="48" viewBox="0 0 48 48"><defs><clipPath id="b"><rect width="48" height="48"/></clipPath></defs><g id="a" clip-path="url(#b)"><g transform="translate(-1.978 -1.978)"><g transform="translate(-0.022 -0.022)"><g transform="translate(0)"><path d="M20.236,5.21a8.026,8.026,0,1,1-8.026,8.026A8.029,8.029,0,0,1,20.236,5.21m0-3.21A11.236,11.236,0,1,0,31.472,13.236,11.228,11.228,0,0,0,20.236,2Z" transform="translate(5.834 1.599)" fill="#fff"/><path d="M38.1,37.262h-3.21V29.236a8.029,8.029,0,0,0-8.026-8.026H17.236A8.029,8.029,0,0,0,9.21,29.236v8.026H6V29.236A11.248,11.248,0,0,1,17.236,18h9.631A11.248,11.248,0,0,1,38.1,29.236Z" transform="translate(4.019 11.281)" fill="#fff"/><rect width="52" height="52" transform="translate(0 0)" fill="none"/></g></g></g></g></svg>