<svg xmlns="http://www.w3.org/2000/svg" xmlns:xlink="http://www.w3.org/1999/xlink" width="48" height="48" viewBox="0 0 48 48"><defs><clipPath id="b"><rect width="48" height="48"/></clipPath></defs><g id="a" clip-path="url(#b)"><g transform="translate(-1.108 -5.446)"><g transform="translate(1.108 7.446)"><path d="M84.276,14.108a3.765,3.765,0,0,1-1.135-2.762A3.889,3.889,0,0,1,89.775,8.58a3.723,3.723,0,0,1,1.163,2.766,3.722,3.722,0,0,1-1.163,2.762,3.9,3.9,0,0,1-5.5,0Z" transform="translate(-42.938 -7.446)" fill="#08265d"/><g transform="translate(0 6.094)"><path d="M40.6,38.926A32.1,32.1,0,0,0,27.624,30.2L28.8,28.838a33.023,33.023,0,0,1,7.371,3.786l4.885-5.674s2.262-2.854.759-5.26a3.959,3.959,0,0,0-3.377-1.809l-.009.006c-.022,0-.042-.006-.063-.006h-17.5a2.2,2.2,0,1,0,0,4.4h11.87L28.79,28.846a20.271,20.271,0,0,0-7.252-1.2,13.95,13.95,0,0,0-3.942.7,17.411,17.411,0,0,1-2.352-3.675l-1.5.656a18.343,18.343,0,0,0,2.247,3.653,32.22,32.22,0,0,0-3.256,1.76A22.7,22.7,0,0,1,9.9,32.255c-5.261,1.721-7.3-1.537-7.377-1.671l-1.417.828c.026.046,2.746,4.552,9.36,2.383a23.431,23.431,0,0,0,3.1-1.652,27.294,27.294,0,0,1,3.547-1.88,11.473,11.473,0,0,0,3.442,2.484,19.191,19.191,0,0,0,3.784,1.242l-4.479,5.181H10.9a2.638,2.638,0,0,0-1.852.691A2.448,2.448,0,0,0,9.054,43.4a2.524,2.524,0,0,0,1.8.717H21.389A5.314,5.314,0,0,0,22.552,44a3.213,3.213,0,0,0,1.863-.815l5.023-5.415s4.855,2.239,6.955,4.5c3.853,4.153,3.26,12.3,3.253,12.46A2.472,2.472,0,0,0,42.4,57.185a2.633,2.633,0,0,0,2.051-2.852S44.95,44.175,40.6,38.926ZM25.589,32.551a17.713,17.713,0,0,1-4.354-1.3,9.216,9.216,0,0,1-2.347-1.572,12.3,12.3,0,0,1,2.7-.4,18.1,18.1,0,0,1,6.027.919Z" transform="translate(-1.108 -19.881)" fill="#08265d"/></g></g></g></g></svg>