<svg xmlns="http://www.w3.org/2000/svg" xmlns:xlink="http://www.w3.org/1999/xlink" width="48" height="48" viewBox="0 0 48 48"><defs><clipPath id="b"><rect width="48" height="48"/></clipPath></defs><g id="a" clip-path="url(#b)"><g transform="translate(0.5 0.625)"><path d="M44.6,31.435A13.045,13.045,0,1,0,57.69,44.48,13.082,13.082,0,0,0,44.6,31.435Zm0,24.225A11.181,11.181,0,1,1,55.819,44.48,11.216,11.216,0,0,1,44.6,55.661Zm5.61-11.181a.936.936,0,0,1-.935.932h-3.74v3.727a.935.935,0,0,1-1.87,0V45.412h-3.74a.932.932,0,1,1,0-1.863h3.74V39.821a.935.935,0,0,1,1.87,0v3.727h3.74A.936.936,0,0,1,50.209,44.48ZM30.574,55.661H14.651a1.842,1.842,0,0,1-1.842-1.836V23.981h7.508a3.709,3.709,0,0,0,3.712-3.7V12.8h20.6a1.842,1.842,0,0,1,1.842,1.836V25.845a.935.935,0,0,0,1.87,0V14.636a3.709,3.709,0,0,0-3.712-3.7H23.095a.743.743,0,0,0-.3.056.264.264,0,0,0-.056.019,1,1,0,0,0-.122.065.261.261,0,0,0-.037.023.846.846,0,0,0-.14.116L11.215,22.4a.843.843,0,0,0-.117.14.26.26,0,0,1-.023.037,1,1,0,0,0-.065.121c-.009.019-.009.037-.019.056a1.121,1.121,0,0,0-.037.116,1.145,1.145,0,0,0-.014.182V53.825a3.709,3.709,0,0,0,3.712,3.7H30.575a.932.932,0,1,0,0-1.863ZM20.317,22.118H14.132l8.027-8v6.164a1.842,1.842,0,0,1-1.842,1.836ZM26.834,44.48a.932.932,0,1,1,0,1.863H20.289a.932.932,0,1,1,0-1.863Zm2.805-9.317h-9.35a.932.932,0,1,1,0-1.863h9.35a.932.932,0,1,1,0,1.863Zm.935-11.181a.932.932,0,1,1,0-1.863h8.415a.932.932,0,1,1,0,1.863Z" transform="translate(-10.94 -10.937)" fill="#fff" stroke="#fff" stroke-width="1"/></g></g></svg>