<svg xmlns="http://www.w3.org/2000/svg" xmlns:xlink="http://www.w3.org/1999/xlink" width="48" height="48" viewBox="0 0 48 48"><defs><clipPath id="b"><rect width="48" height="48"/></clipPath></defs><g id="a" clip-path="url(#b)"><g transform="translate(-9.12 -7.2)"><path d="M58.28,48a12.28,12.28,0,1,0,12.28,12.28A12.295,12.295,0,0,0,58.28,48Zm0,22.328A10.048,10.048,0,1,1,68.328,60.28,10.059,10.059,0,0,1,58.28,70.328Z" transform="translate(-14.301 -18.161)" fill="#08265d" stroke="#08265d" stroke-miterlimit="10" stroke-width="0.8"/><path d="M27.379,52.19H15.793a3.4,3.4,0,0,1-3.476-3.314v-23.2H52.869a1.136,1.136,0,0,0,1.159-1.1V17.943a5.673,5.673,0,0,0-5.793-5.524H42.441V9.1a1.16,1.16,0,0,0-2.317,0v3.314H23.9V9.1a1.16,1.16,0,0,0-2.317,0v3.314H15.793A5.673,5.673,0,0,0,10,17.943V48.876A5.673,5.673,0,0,0,15.793,54.4H27.379a1.106,1.106,0,1,0,0-2.21ZM12.317,17.943a3.4,3.4,0,0,1,3.476-3.314h5.793v3.314a1.16,1.16,0,0,0,2.317,0V14.629H40.124v3.314a1.16,1.16,0,0,0,2.317,0V14.629h5.793a3.4,3.4,0,0,1,3.476,3.314v5.524H12.317Z" fill="#08265d" stroke="#08265d" stroke-miterlimit="10" stroke-width="0.8"/><path d="M36.751,47a.967.967,0,0,0,1.357-.015l7.608-7.662a.968.968,0,1,0-1.374-1.365l-6.935,6.985-3.344-3.235A.969.969,0,1,0,32.717,43.1L36.745,47Z" transform="translate(4.77 -0.258)" fill="#08265d" stroke="#08265d" stroke-miterlimit="10" stroke-width="0.8"/></g></g></svg>