<svg xmlns="http://www.w3.org/2000/svg" xmlns:xlink="http://www.w3.org/1999/xlink" width="48" height="48" viewBox="0 0 48 48"><defs><clipPath id="b"><rect width="48" height="48"/></clipPath></defs><g id="a" clip-path="url(#b)"><g transform="translate(-4.297 -6.811)"><path d="M46.043,44.873l-3.23,4.779a1.031,1.031,0,0,1-.275.275l-2.825,1.91a1.031,1.031,0,0,1-.687.17c-10.3-1.135-18.306-4.623-24.043-10.32-.06-.06-.121-.119-.176-.179s-.121-.121-.183-.183C8.926,35.591,5.438,27.587,4.3,17.283a1.022,1.022,0,0,1,.17-.687l1.91-2.825a1.031,1.031,0,0,1,.275-.275l5.193-3.509a1.026,1.026,0,0,1,1.5.406L16.5,16.952H51.269a1.022,1.022,0,0,1,.691.267,1.164,1.164,0,0,1,.119.127,1.018,1.018,0,0,1,.217.614V43.868a1.018,1.018,0,0,1-.217.614.993.993,0,0,1-.119.127,1.022,1.022,0,0,1-.691.267H46.043ZM14.927,18.407l-2.912-6.055L7.972,15.085,6.386,17.432Q8.063,31.817,16.08,39.881l.181.181c.057.057.115.115.17.172q8.055,8,22.449,9.695l2.347-1.586L43.96,44.3l-9.473-4.555-2.819,4.633a1.027,1.027,0,0,1-1.18.447,29.023,29.023,0,0,1-11.835-6.769l-.021-.021c-.057-.055-.115-.113-.172-.17l-.008-.008a28.911,28.911,0,0,1-6.958-12.027,1.025,1.025,0,0,1,.447-1.18l4.578-2.786.033-.021.023-.012-1.631-3.392-.012-.027Zm6.009,18.959a27.125,27.125,0,0,0,9.4,5.251l2.883-4.736a1.027,1.027,0,0,1,1.321-.392l11.09,5.335h2.676l-13.5-10.606-3.024,2.376a1.029,1.029,0,0,1-1.268,0L27.49,32.217l-6.552,5.148Zm-1.49-1.438,6.383-5.015-8.837-6.943-3.3,2.007a26.791,26.791,0,0,0,5.751,9.951Zm-.675-13.168,9.335,7.335.031.025,3.01,2.366,3.01-2.366.031-.025L48.305,19H17.492l1.332,2.77a1.028,1.028,0,0,1-.051.985Zm17.695,8.154L50.245,41.737V20.087Z" transform="translate(0 0)" fill="#08265d" fill-rule="evenodd"/></g></g></svg>