<svg xmlns="http://www.w3.org/2000/svg" xmlns:xlink="http://www.w3.org/1999/xlink" width="48" height="48" viewBox="0 0 48 48"><defs><clipPath id="b"><rect width="48" height="48"/></clipPath></defs><g id="a" clip-path="url(#b)"><g transform="translate(-0.332 0.883)"><g transform="translate(1.332 0)"><path d="M3.917-.383A2.739,2.739,0,0,0,1.332,2.2V44.3a2.809,2.809,0,0,0,2.585,2.654h40.99A2.815,2.815,0,0,0,47.5,44.3V2.2A2.746,2.746,0,0,0,44.907-.383Zm0,1.826h40.99a.805.805,0,0,1,.878.752V44.3a.8.8,0,0,1-.878.745H3.917a.8.8,0,0,1-.873-.745V2.2a.8.8,0,0,1,.873-.752Zm3.654,1.8A2.267,2.267,0,0,0,5.156,5.289V41.2a2.268,2.268,0,0,0,2.415,2.05H41.254a2.268,2.268,0,0,0,2.415-2.05V5.289a2.267,2.267,0,0,0-2.415-2.048Zm0,1.453H41.254a.637.637,0,0,1,.7.595V41.2a.642.642,0,0,1-.7.6H7.571a.642.642,0,0,1-.7-.6V5.289a.637.637,0,0,1,.7-.595Zm4.391,3.8a.8.8,0,0,0-.853.725v11.8s0,0,0,0a.645.645,0,0,0,.112.351l.02.027a.756.756,0,0,0,.1.114l.042.034a.857.857,0,0,0,.127.082l.042.023a.948.948,0,0,0,.154.054l.043.013a1,1,0,0,0,.209.024H37a1,1,0,0,0,.2-.021l.04-.01a.948.948,0,0,0,.164-.057l.047-.023a.855.855,0,0,0,.132-.087l.038-.033a.757.757,0,0,0,.1-.108q.019-.025.035-.051a.673.673,0,0,0,.06-.121.638.638,0,0,0,.022-.074.621.621,0,0,0,.013-.092q.005-.024.008-.048V9.222a.677.677,0,0,0-.253-.514A.94.94,0,0,0,37,8.5Zm.859,1.455H36.149v8.912L32.254,14.5a.948.948,0,0,0-1.364,0l-4.719,5.286-6.418-7.8a.947.947,0,0,0-1.4,0l-5.53,6.723Zm6.232,3.717L24.5,20.295h-10.9Zm12.519,2.468,3.71,4.157H27.863ZM11.962,25.9a.737.737,0,1,0,0,1.455H37a.94.94,0,0,0,.607-.211.653.653,0,0,0,0-1.031A.94.94,0,0,0,37,25.9Zm0,5.821a.736.736,0,1,0,0,1.453H37a.8.8,0,0,0,.859-.724.676.676,0,0,0-.251-.517A.94.94,0,0,0,37,31.72Z" transform="translate(-1.332 0)" fill="#ffe610" stroke="#ffe610" stroke-width="0.2"/></g></g></g></svg>