<svg xmlns="http://www.w3.org/2000/svg" xmlns:xlink="http://www.w3.org/1999/xlink" width="48" height="48" viewBox="0 0 48 48"><defs><clipPath id="b"><rect width="48" height="48"/></clipPath></defs><g id="a" clip-path="url(#b)"><g transform="translate(-12.658 -8.613)"><path d="M41.466,29.949A11.668,11.668,0,1,0,29.8,18.282,11.682,11.682,0,0,0,41.466,29.949Zm0-21.6a9.937,9.937,0,1,1-9.937,9.937A9.949,9.949,0,0,1,41.466,8.345Z" transform="translate(-4.959 2)" fill="#08265d"/><path d="M50.279,52.817c-.025-.014-.05-.025-.074-.036L46.32,51.065a.854.854,0,0,0-.329-.147l-2.672-1.179a.866.866,0,0,0-1.044.275c-1.732,2.318-3.587,3.5-5.52,3.5h-.007c-3.339,0-5.982-3.463-6.007-3.5a.869.869,0,0,0-1.044-.275l-6.634,2.929c-.546.192-5.285,1.975-4.983,6.437V74.035a.866.866,0,0,0,.866.866H54.068a.866.866,0,0,0,.866-.866V59.108c0-3.642-4.465-6.185-4.654-6.291Zm-4.462,8.611a2.408,2.408,0,1,1-2.408,2.408A2.411,2.411,0,0,1,45.817,61.428ZM53.2,73.172H19.811v-14.1a.591.591,0,0,0,0-.063c-.241-3.308,3.675-4.661,3.84-4.717.027-.009.052-.018.079-.029l3.046-1.346v7.062h-.309a3.426,3.426,0,0,0-3.427,3.427v2.347a.866.866,0,0,0,.857.866l1.38.014h.009a.866.866,0,0,0,.009-1.732l-.523,0V63.41a1.694,1.694,0,0,1,1.7-1.7h2.347a1.7,1.7,0,0,1,1.7,1.7V64.9l-.8.007a.866.866,0,0,0,.007,1.732h.007l1.657-.014a.866.866,0,0,0,.859-.866V63.412a3.434,3.434,0,0,0-3.427-3.43h-.307V52.156l1.29-.57c1.006,1.136,3.612,3.655,6.949,3.655,2.341,0,4.521-1.227,6.489-3.646l1.716.758v7.437a4.14,4.14,0,1,0,1.732,0V53.116l2.782,1.229c1.073.616,3.736,2.607,3.736,4.762Z" transform="translate(0 -18.288)" fill="#08265d"/></g></g></svg>