<svg xmlns="http://www.w3.org/2000/svg" xmlns:xlink="http://www.w3.org/1999/xlink" width="48" height="48" viewBox="0 0 48 48"><defs><clipPath id="b"><rect width="48" height="48"/></clipPath></defs><g id="a" clip-path="url(#b)"><g transform="translate(-3.01 -1.996)"><g transform="translate(8.01 1.996)"><path d="M8.922,12.88a4.178,4.178,0,0,1,3.76,1.632c1.92,2.688,3.864,2.44,5.921,2.176l.184-.024a26.573,26.573,0,0,1,5.369.216,2.535,2.535,0,0,0,.392.024,2.568,2.568,0,0,0,1.688-.576A2.429,2.429,0,0,0,27,14.36c-.04-2.272-2.488-3.72-6.545-3.872a4.557,4.557,0,0,1-.832-.112,2.227,2.227,0,0,1,.744-1,1.588,1.588,0,0,1,1.3-.192,21.424,21.424,0,0,1,3.712,1.872c4.032,2.288,9.049,5.136,11.945,3.744a1.853,1.853,0,0,0,1.056-1.576,1.926,1.926,0,0,0-.872-1.736L25.236,3.551a9.725,9.725,0,0,0-6.337-1.5L8.722,3.183a.791.791,0,0,0-.712.792v8.113a.809.809,0,0,0,.28.608A.767.767,0,0,0,8.922,12.88ZM9.61,4.7l9.473-1.048A8.11,8.11,0,0,1,24.372,4.9L36.637,12.84a.311.311,0,0,1,.144.288.263.263,0,0,1-.16.24c-2.136,1.032-7.145-1.808-10.457-3.7a19.642,19.642,0,0,0-4.184-2.056,3.206,3.206,0,0,0-2.528.448,3.6,3.6,0,0,0-1.168,1.4.8.8,0,0,0-1.352.84,3.088,3.088,0,0,0,1.3,1.232l.1.048a5.182,5.182,0,0,0,2.072.5c2.472.1,4.976.84,5,2.3a.9.9,0,0,1-.216.728,1.164,1.164,0,0,1-.792.176,33.578,33.578,0,0,0-4.168-.312,13.269,13.269,0,0,0-1.64.088L18.4,15.1c-1.968.248-3.048.392-4.416-1.52a5.6,5.6,0,0,0-4.376-2.32Z" transform="translate(-8.01 -1.996)" fill="#08265d" stroke="#08265d" stroke-width="0.2"/><path d="M42.933,46.928a.8.8,0,0,0-.8.8v8.3a1.081,1.081,0,0,1-1.08,1.08H28.892V46.4a.8.8,0,0,0-1.6,0V57.121H15.13a1.081,1.081,0,0,1-1.08-1.08V47.728a.8.8,0,0,0-1.6,0v8.3a2.68,2.68,0,0,0,2.68,2.68H41.053a2.68,2.68,0,0,0,2.68-2.68v-8.3A.8.8,0,0,0,42.933,46.928Z" transform="translate(-8.898 -10.713)" fill="#08265d" stroke="#08265d" stroke-width="0.2"/><path d="M46.246,39.452l-4.216-5.777a.8.8,0,0,0-.648-.328H35a8.3,8.3,0,1,0-15.586,0H13.027a.8.8,0,0,0-.648.328L8.162,39.452a.8.8,0,0,0,.648,1.272H22.988a.8.8,0,0,0,.648-.328L27.2,35.5l3.576,4.888a.8.8,0,0,0,.648.328H45.606a.79.79,0,0,0,.712-.44A.805.805,0,0,0,46.246,39.452ZM22.58,39.124H10.386l3.048-4.176H25.628Zm-1.456-5.785a6.619,6.619,0,0,1-.632-2.824,6.7,6.7,0,0,1,13.409,0,6.619,6.619,0,0,1-.632,2.824Zm10.705,5.785L28.78,34.947H40.973l3.048,4.176Z" transform="translate(-8.01 -6.037)" fill="#08265d" stroke="#08265d" stroke-width="0.2"/></g></g></g></svg>