<svg xmlns="http://www.w3.org/2000/svg" xmlns:xlink="http://www.w3.org/1999/xlink" width="48" height="48" viewBox="0 0 48 48"><defs><clipPath id="b"><rect width="48" height="48"/></clipPath></defs><g id="a" clip-path="url(#b)"><g transform="translate(-19.95 -19.5)"><path d="M58.139,41.375A2.375,2.375,0,0,0,54.7,41.28l-5.447,5.447V22.375a2.375,2.375,0,0,0-4.75,0V46.727l-5.32-5.352a2.652,2.652,0,0,0-1.868-.792,2.264,2.264,0,0,0-1.528.562,2.375,2.375,0,0,0-.1,3.444l6.8,6.8a6.2,6.2,0,0,0,8.764,0l6.705-6.626A2.5,2.5,0,0,0,58.139,41.375Z" transform="translate(-2.916)" fill="#fff"/><path d="M66.917,62.375a2.375,2.375,0,1,0-4.75,0v4.75a3.958,3.958,0,0,1-3.958,3.958h-28.5a3.958,3.958,0,0,1-3.958-3.958v-4.75a2.375,2.375,0,0,0-4.75,0v4.75a8.708,8.708,0,0,0,8.708,8.708h28.5a8.708,8.708,0,0,0,8.708-8.708Z" transform="translate(0 -8.333)" fill="#fff"/></g></g></svg>