<svg xmlns="http://www.w3.org/2000/svg" xmlns:xlink="http://www.w3.org/1999/xlink" width="48" height="48" viewBox="0 0 48 48"><defs><clipPath id="b"><rect width="48" height="48"/></clipPath></defs><g id="a" clip-path="url(#b)"><g transform="translate(-95.956 5.693)"><g transform="translate(107.959 5.307)"><path d="M25.07,23.5a3.379,3.379,0,0,0-2.438,1.051.175.175,0,0,0-.019.018.109.109,0,0,1-.012.016,3.556,3.556,0,0,0-.959,2.434v3.249a.739.739,0,0,0,.206.514.688.688,0,0,0,1,0,.724.724,0,0,0,.2-.512V27.016a2.151,2.151,0,0,1,.177-.853L35.438,38.122a5.563,5.563,0,0,0,7.888,0L55.541,26.163a2.158,2.158,0,0,1,.177.853V46.828A2.028,2.028,0,0,1,53.694,48.9H25.07a2.029,2.029,0,0,1-2.023-2.072V43.579a.713.713,0,0,0-.7-.722.692.692,0,0,0-.5.212.728.728,0,0,0-.207.51v3.247a3.483,3.483,0,0,0,3.427,3.52H53.694a3.483,3.483,0,0,0,3.427-3.52V27.014A3.555,3.555,0,0,0,56.2,24.62a.655.655,0,0,0-.048-.055l-.015-.012A3.374,3.374,0,0,0,53.694,23.5Zm0,1.446H53.694a2.02,2.02,0,0,1,.857.192L42.358,37.071a4.123,4.123,0,0,1-5.948,0l-12.2-11.937a1.991,1.991,0,0,1,.857-.192Z" transform="translate(-21.643 -23.496)" fill="#08265d" stroke="#08265d" stroke-width="1"/></g><g transform="translate(96.5 14.248)"><path d="M12.116,39.381a.73.73,0,0,0-.512.21.723.723,0,0,0,.512,1.237h5.336a.723.723,0,0,0,.512-1.237.73.73,0,0,0-.512-.21Zm-3.4,3.759a.724.724,0,0,0,0,1.448h8.733a.724.724,0,1,0,0-1.448ZM5.007,46.906a.723.723,0,0,0-.51,1.235.717.717,0,0,0,.51.214H17.453a.723.723,0,0,0,.726-.726.726.726,0,0,0-.726-.722Z" transform="translate(-4.285 -39.381)" fill="#08265d" stroke="#08265d" stroke-width="1"/></g></g></g></svg>