<svg xmlns="http://www.w3.org/2000/svg" xmlns:xlink="http://www.w3.org/1999/xlink" width="48" height="28" viewBox="0 0 48 28">
  <defs>
    <clipPath id="clip-email-Modal-icon">
      <rect width="48" height="28"/>
    </clipPath>
  </defs>
  <g id="email-Modal-icon" clip-path="url(#clip-email-Modal-icon)">
    <g id="Group_15653" data-name="Group 15653" transform="translate(-95.667 -4.498)">
      <g id="noun-email-7979298_1_" data-name="noun-email-7979298 (1)" transform="translate(107.959 5.307)">
        <path id="Path_28276" data-name="Path 28276" d="M25.012,23.5a3.322,3.322,0,0,0-2.4,1.032.172.172,0,0,0-.019.017.108.108,0,0,1-.011.016,3.494,3.494,0,0,0-.942,2.391v3.192a.726.726,0,0,0,.2.505.677.677,0,0,0,.978,0,.712.712,0,0,0,.2-.5V26.955a2.113,2.113,0,0,1,.174-.838L35.2,37.868a5.469,5.469,0,0,0,7.754,0L54.963,26.117a2.12,2.12,0,0,1,.174.838V46.422a1.993,1.993,0,0,1-1.988,2.036H25.012a1.994,1.994,0,0,1-1.988-2.036V43.23a.7.7,0,0,0-.687-.71.68.68,0,0,0-.489.208.715.715,0,0,0-.2.5V46.42a3.423,3.423,0,0,0,3.369,3.459H53.149a3.423,3.423,0,0,0,3.369-3.459V26.953a3.493,3.493,0,0,0-.906-2.353.643.643,0,0,0-.047-.054l-.015-.012a3.317,3.317,0,0,0-2.4-1.038Zm0,1.421H53.149a1.987,1.987,0,0,1,.842.189L42.005,36.835a4.054,4.054,0,0,1-5.846,0L24.171,25.106a1.958,1.958,0,0,1,.842-.189Z" transform="translate(-21.643 -23.496)" fill="#224fa4" stroke="#224fa4" stroke-width="1"/>
      </g>
      <g id="noun-email-7979298_1_2" data-name="noun-email-7979298 (1)" transform="translate(96.5 14.015)">
        <path id="Path_28276-2" data-name="Path 28276" d="M12.116,39.381a.73.73,0,0,0-.512.21.723.723,0,0,0,.512,1.237h5.336a.723.723,0,0,0,.512-1.237.73.73,0,0,0-.512-.21Zm-3.4,3.759a.724.724,0,0,0,0,1.448h8.733a.724.724,0,1,0,0-1.448ZM5.007,46.906a.723.723,0,0,0-.51,1.235.717.717,0,0,0,.51.214H17.453a.723.723,0,0,0,.726-.726.726.726,0,0,0-.726-.722Z" transform="translate(-4.285 -39.381)" fill="#eecb03" stroke="#eecb03" stroke-width="1"/>
      </g>
    </g>
  </g>
</svg>
