<svg xmlns="http://www.w3.org/2000/svg" xmlns:xlink="http://www.w3.org/1999/xlink" width="48" height="48" viewBox="0 0 48 48"><defs><clipPath id="b"><rect width="48" height="48"/></clipPath></defs><g id="a" clip-path="url(#b)"><g transform="translate(0.109 0)"><path d="M15.165,40.609h5.411a1.546,1.546,0,1,1,0,3.092H18.1a4.251,4.251,0,0,0-4.16,3.488.131.131,0,0,0,0,.027L11.7,61.822a3.041,3.041,0,1,0,6.012.924l.929-6.659A1.749,1.749,0,0,1,20.421,54.6H32.17a.773.773,0,0,0,.547-1.32l-1.546-1.546a.773.773,0,0,0-1.094,1.094l.226.226H20.421a3.289,3.289,0,0,0-3.316,2.833l-.928,6.644a1.5,1.5,0,1,1-2.957-.46l2.242-14.6a2.707,2.707,0,0,1,2.64-2.22h2.473a3.092,3.092,0,1,0,0-6.184H15.165a.773.773,0,1,0,0,1.546Z" transform="translate(-6.948 -20.512)" fill="#ffe610" fill-rule="evenodd"/><path d="M50.21,67.414,48.664,68.96a.773.773,0,1,0,1.094,1.094L51.3,68.508a.773.773,0,0,0-1.094-1.094Z" transform="translate(-25.535 -34.724)" fill="#ffe610" fill-rule="evenodd"/><path d="M59.125,13.156a11.594,11.594,0,0,0-23.189,0c0,3.842,1.77,7.948,3.923,11.482A54.817,54.817,0,0,0,46.983,33.8a.774.774,0,0,0,1.094,0A54.808,54.808,0,0,0,55.2,24.639C57.354,21.1,59.124,17,59.124,13.156ZM47.53,6.2a6.956,6.956,0,1,0,6.956,6.956A6.959,6.959,0,0,0,47.53,6.2Z" transform="translate(-19.218 -1.562)" fill="#ffe610" fill-rule="evenodd"/><path d="M42.312,32.812q-.194.774-.45,1.546h1.113a.758.758,0,0,1,.777.688.376.376,0,0,0,0,.046L47.93,62.841s0,.008,0,.012a.836.836,0,0,1-.785.955H4.483a.8.8,0,0,1-.783-.964L7.872,35.111a.867.867,0,0,1,.785-.754H19.045q-.255-.771-.45-1.546H8.656a2.417,2.417,0,0,0-2.3,2.014c0,.012,0,.023-.008.035L2.171,62.609a2.31,2.31,0,0,0,2.311,2.744H47.149a2.428,2.428,0,0,0,2.309-2.748l-4.17-27.724a2.282,2.282,0,0,0-2.313-2.07Z" transform="translate(-2.14 -17.353)" fill="#ffe610" fill-rule="evenodd"/></g></g></svg>