<svg xmlns="http://www.w3.org/2000/svg" xmlns:xlink="http://www.w3.org/1999/xlink" width="48" height="48" viewBox="0 0 48 48"><defs><clipPath id="b"><rect width="48" height="48"/></clipPath></defs><g id="a" clip-path="url(#b)"><g transform="translate(3)"><path d="M42.031,26.052l-4.421-.64L35.63,21.4a1.041,1.041,0,0,0-1.79,0l-1.98,4.011-4.421.64a1,1,0,0,0-.56,1.7l3.2,3.121-.76,4.4a1,1,0,0,0,1.45,1.06l3.951-2.08,3.951,2.08a.976.976,0,0,0,1.05-.08,1,1,0,0,0,.4-.98l-.76-4.4,3.2-3.121a1.013,1.013,0,0,0-.55-1.71Zm-4.421,3.761a1,1,0,0,0-.29.88l.5,2.921a21.888,21.888,0,0,0-3.091-1.5c-.31-.09-2.781,1.38-3.091,1.5l.5-2.921a.964.964,0,0,0-.29-.88l-2.12-2.07,2.941-.43a.977.977,0,0,0,.75-.55L34.73,24.1l1.31,2.661a1.036,1.036,0,0,0,.75.55l2.941.43Z" transform="translate(-20.717 -15.53)" fill="#08265d"/><path d="M57.48,26.7l-4.961-3.021a3.432,3.432,0,0,0-4.651,1.02l-2.431,3.631V15.957A3.44,3.44,0,0,0,42,12.516H20.862a3.44,3.44,0,0,0-3.441,3.441v30.9a2.22,2.22,0,0,0,3.551,1.77l10.462-7.842,3.781,2.831a3.575,3.575,0,0,0-.75,3.041c-.05.02-1.72,2.831-1.76,2.871a1.994,1.994,0,0,0,.66,2.731l.66.4-1.76,2.881a1,1,0,0,0,.49,1.45l3.941,1.53H19.112a1,1,0,0,0,0,2H52.429a1,1,0,0,0,0-2H38.865c.04-.04,1.26-2.07,1.3-2.11l.66.4a1.987,1.987,0,0,0,2.731-.66c.03-.08,1.72-2.781,1.74-2.881a3.409,3.409,0,0,0,2.14-1.66l9.692-17.483a.2.2,0,0,0,.05-.09L58.7,31.3a3.424,3.424,0,0,0-1.22-4.6Zm-6.751-1.53a1.442,1.442,0,0,1,.75.21L56.44,28.4a1.445,1.445,0,0,1,.51,1.93l-1.02,1.83-7.561-4.611,1.17-1.74a1.422,1.422,0,0,1,1.19-.64ZM32.035,38.731a.99.99,0,0,0-1.2,0L19.772,47.023a.219.219,0,0,1-.35-.17v-30.9a1.447,1.447,0,0,1,1.44-1.44H42a1.447,1.447,0,0,1,1.44,1.44V31.32L36.316,41.952l-4.291-3.221Zm6.421,16.624-.83,1.37-3.021-1.17,1.13-1.86c.58.35,2.17,1.33,2.731,1.66Zm3.4-.26c-1.04-.62-4.871-3-5.991-3.641l-1.46-.89,1.21-1.98,7.442,4.541-1.2,1.96Zm3.831-4.461a1.451,1.451,0,0,1-2.01.53l-6.622-4.041a1.445,1.445,0,0,1-.44-2.03L47.247,29.2l7.7,4.7L45.677,50.624Z" transform="translate(-17.421 -12.516)" fill="#08265d"/></g></g></svg>