<svg xmlns="http://www.w3.org/2000/svg" xmlns:xlink="http://www.w3.org/1999/xlink" width="48" height="48" viewBox="0 0 48 48"><defs><clipPath id="b"><rect width="48" height="48"/></clipPath></defs><g id="a" clip-path="url(#b)"><g transform="translate(-365.719 -644.333)"><ellipse cx="11.233" cy="18.559" rx="11.233" ry="18.559" transform="translate(380.508 649.868)" fill="#ffe610"/><g transform="translate(359.818 644.333)"><g transform="translate(7.198 0)"><g transform="translate(0)"><path d="M39.741,16.39A23.351,23.351,0,1,1,16.39,39.741,23.352,23.352,0,0,1,39.741,16.39Zm.543,8.155a3.4,3.4,0,1,1-3.4,3.4,3.4,3.4,0,0,1,3.4-3.4ZM33.8,34.931l10.321-1L40.982,49.135l3.4-.218c-2.923,4.288-10.88,6.71-9.656-.395l1.8-10.449Z" transform="translate(-16.39 -16.39)" fill="#08265d" fill-rule="evenodd"/></g></g><path d="M10.311,0,20.622,19.409H0Z" transform="translate(13.255 56) rotate(-130)" fill="#08265d"/></g></g></g></svg>