<svg xmlns="http://www.w3.org/2000/svg" xmlns:xlink="http://www.w3.org/1999/xlink" width="48" height="48" viewBox="0 0 48 48"><defs><clipPath id="b"><rect width="48" height="48"/></clipPath></defs><g id="a" clip-path="url(#b)"><path d="M28.535,38.821V30.25a1.717,1.717,0,0,0-1.714-1.714H25.107a1.714,1.714,0,1,1,0-3.429h1.714a5.15,5.15,0,0,1,5.143,5.143v8.571h3.429a1.714,1.714,0,1,1,0,3.429H25.107a1.714,1.714,0,1,1,0-3.429ZM30.25,6.25a23.9,23.9,0,0,0-20.308,11.2,1.716,1.716,0,0,0,2.9,1.832A20.572,20.572,0,1,1,9.678,30.25a20.711,20.711,0,0,1,.551-4.749,1.714,1.714,0,1,0-3.336-.786A24,24,0,1,0,30.249,6.25Zm.1,15.531a3.616,3.616,0,0,0,.326-.394,2.167,2.167,0,0,0,.223-.446,2.244,2.244,0,0,0,.154-.48,2.429,2.429,0,0,0,0-.994,2.244,2.244,0,0,0-.154-.48,2.167,2.167,0,0,0-.223-.446,3.616,3.616,0,0,0-.326-.394,2.653,2.653,0,0,0-3.634,0,2.566,2.566,0,0,0,0,3.634,2.566,2.566,0,0,0,3.634,0Z" transform="translate(-6.249 -6.25)" fill="#08265d"/></g></svg>