<svg xmlns="http://www.w3.org/2000/svg" xmlns:xlink="http://www.w3.org/1999/xlink" width="48" height="48" viewBox="0 0 48 48"><defs><clipPath id="b"><rect width="48" height="48"/></clipPath></defs><g id="a" clip-path="url(#b)"><path d="M54.907,19.129a.689.689,0,0,0-.517-.148.7.7,0,0,0-.468.27l-4.46,5.807-3.348-.252a2.418,2.418,0,0,0-1.785.619,2.5,2.5,0,0,0-.826,1.707l-.1,1.264a2.548,2.548,0,0,0,.519,1.7A2.48,2.48,0,0,0,42.9,31.948l-.1,1.264a2.579,2.579,0,0,0,.47,1.65,2.548,2.548,0,0,0-1.11,1.907l-.079,1.239a2.5,2.5,0,0,0,.552,1.781,2.534,2.534,0,0,0-.967,1.79l-.079,1.259a2.494,2.494,0,0,0,.58,1.822,2.41,2.41,0,0,0,1.6.85l.216.927a1.028,1.028,0,0,1-.739,1.214l-1.125.277a.981.981,0,0,1-1.185-.753l-1.179-5.107a.712.712,0,0,0-.479-.545.69.69,0,0,0-.7.169.729.729,0,0,0-.189.707l.337,1.448h0L40.016,49.5a1,1,0,0,1-.116.749.977.977,0,0,1-.628.454l-1.108.274a1.01,1.01,0,0,1-1.2-.749l-.121-.535c0-.025,0-.049-.008-.074l-.253-1.1-.048-.221V48.3l-1.346-5.8a.7.7,0,0,0-.839-.513.719.719,0,0,0-.528.841l1.382,6,.268,1.2a1.027,1.027,0,0,1-.747,1.143l-1.125.277a.968.968,0,0,1-.746-.125,1.009,1.009,0,0,1-.441-.629L31.79,48l-.007-.014L30.7,43.248a.7.7,0,0,0-.842-.537.719.719,0,0,0-.525.861l1.486,6.52a1,1,0,0,1-.121.758,1.021,1.021,0,0,1-.616.461l-1.128.263a.939.939,0,0,1-.74-.124,1.033,1.033,0,0,1-.448-.623L24.755,36.84,27.773,30.5l5.138.4a3.553,3.553,0,0,0,2.637-.881,3.719,3.719,0,0,0,1.245-2.537l.224-2.971a.731.731,0,0,0-.166-.525.7.7,0,0,0-.48-.251l-5.2-.405c.066-.141.132-.288.194-.421,1.314-2.892,1.393-3.066,5.515-3.158.007,0,.008,0,.015,0a.691.691,0,0,0,.242-.056l.019-.007a.72.72,0,0,0,.194-.14l.033-.034a.408.408,0,0,0,.033-.034l6.43-8.355a.728.728,0,0,0-.133-.987.69.69,0,0,0-.969.1l-6.228,8.09c-4.519.13-4.979.794-6.423,3.978-.126.277-.268.587-.421.908l-5.229-.407a.688.688,0,0,0-.446.122c-7.8,5.387-8.045,5.775-8.693,13.942l-.1,1.207L8.948,44.818a.729.729,0,0,0,.024,1.014.69.69,0,0,0,.991-.025L16.4,38.886a.729.729,0,0,0,.191-.431l.119-1.465c.607-7.642.611-7.712,7.876-12.729l10.989.857L35.4,27.379a2.275,2.275,0,0,1-.761,1.552,2.173,2.173,0,0,1-1.613.54l-5.619-.44H27.4a.618.618,0,0,0-.2.027.586.586,0,0,0-.066.009.682.682,0,0,0-.213.124L26.9,29.2a.794.794,0,0,0-.084.106.647.647,0,0,0-.084.117l-.007.007-3.335,7a.731.731,0,0,0-.055.468l2.372,11.022-6.442,6.934a.731.731,0,0,0,.024,1.017.692.692,0,0,0,.994-.024l5.785-6.23.329,1.534a2.468,2.468,0,0,0,1.075,1.518,2.319,2.319,0,0,0,1.251.369,2.214,2.214,0,0,0,.554-.07l1.128-.263a2.384,2.384,0,0,0,1.143-.668,2.36,2.36,0,0,0,2.359.8l1.128-.277a2.356,2.356,0,0,0,1.258-.785,2.4,2.4,0,0,0,1.642.665,2.3,2.3,0,0,0,.537-.063l1.108-.274a2.377,2.377,0,0,0,1.5-1.1,2.44,2.44,0,0,0,.31-1.671,2.349,2.349,0,0,0,.486.056,2.41,2.41,0,0,0,.549-.063l1.128-.277a2.458,2.458,0,0,0,1.787-2.942l-.112-.481,2.29.172a2.014,2.014,0,0,0,.2.009,2.467,2.467,0,0,0,2.423-2.317l.1-1.28A2.549,2.549,0,0,0,50,40.968a2.517,2.517,0,0,0,1.789-2.206l.1-1.28a2.539,2.539,0,0,0-.313-1.392,2.555,2.555,0,0,0,1.478-2.118l.079-1.244a2.5,2.5,0,0,0-1.554-2.519,2.537,2.537,0,0,0,.4-1.172l.1-1.266a2.545,2.545,0,0,0-1.158-2.292l4.1-5.344a.735.735,0,0,0-.116-1.012ZM44.9,27.236a1.059,1.059,0,0,1,.352-.728,1.042,1.042,0,0,1,.763-.265l3.678.277a1.093,1.093,0,0,1,.983,1.148l-.094,1.252a1.086,1.086,0,0,1-1.045,1l-3.866-.295A1.091,1.091,0,0,1,44.8,28.5Zm3.849,16.159a1.067,1.067,0,0,1-.357.728,1.019,1.019,0,0,1-.757.253L43.949,44.1h0a1.027,1.027,0,0,1-.714-.368,1.075,1.075,0,0,1-.245-.779l.079-1.259a1.079,1.079,0,0,1,1.061-.994h.07l.084.007a.4.4,0,0,0,.051.009h.009l3.572.265a1.059,1.059,0,0,1,.927,1.133Zm1.642-4.745a1.082,1.082,0,0,1-1.132.992l-1.251-.092c-.008,0-.015,0-.024,0l-3.585-.27a1.047,1.047,0,0,1-.668-.369,1.061,1.061,0,0,1-.248-.785l.079-1.246a1.088,1.088,0,0,1,1.132-1.008l.343.025a.233.233,0,0,0,.042.007l4.533.345a1.091,1.091,0,0,1,.88,1.133Zm1.264-4.782a1.087,1.087,0,0,1-1.13,1.008l-.8-.06c-.037,0-.072-.018-.11-.02l-4.484-.333a1.023,1.023,0,0,1-.674-.358,1.116,1.116,0,0,1-.257-.787l.1-1.264a1.069,1.069,0,0,1,1.057-1h.07l.132.011c.04,0,.077.018.119.022h.007l3.675.279c.055,0,.108,0,.16,0h.019l1.226.095a1.047,1.047,0,0,1,.721.375,1.1,1.1,0,0,1,.249.787Z" transform="translate(-8.141 -9.03)" fill="#08265d" stroke="#08265d" stroke-width="1"/></g></svg>