<svg xmlns="http://www.w3.org/2000/svg" xmlns:xlink="http://www.w3.org/1999/xlink" width="48" height="48" viewBox="0 0 48 48"><defs><clipPath id="b"><rect width="48" height="48"/></clipPath></defs><g id="a" clip-path="url(#b)"><g transform="translate(-24.323 -0.405)"><path d="M48.013,32.215a3.353,3.353,0,0,0,3.113-2.378.7.7,0,0,1,.934-.465.8.8,0,0,1,.428,1.015,4.652,4.652,0,0,1-8.969,0,.817.817,0,0,1,.428-1.015.717.717,0,0,1,.934.465,3.362,3.362,0,0,0,3.113,2.378Zm.039-6.468c-3.181,0-5.7-3.213-6.653-6.531a2.5,2.5,0,0,1-1.323-2.494,3.1,3.1,0,0,1,.973-2.378,2.592,2.592,0,0,1,.7-1.881c.642-.539,1.43-.328,2.208-.127a2.884,2.884,0,0,0,2.967-.349c1.819-1.6,4.29-2.082,6.021-1.184a4.071,4.071,0,0,1,2.091,3.541,3.12,3.12,0,0,1,.973,2.389,2.5,2.5,0,0,1-1.323,2.494c-.953,3.319-3.463,6.531-6.653,6.531ZM53.4,18.37a.741.741,0,0,1,.7-.592c.049-.021.447-.169.447-1.067a1.5,1.5,0,0,0-.4-1.12c-.019,0-.039-.021-.058-.021a.177.177,0,0,1-.078-.032.763.763,0,0,1-.447-.8.117.117,0,0,1,.019-.053,2.66,2.66,0,0,0-1.274-2.463,4.269,4.269,0,0,0-4.475.983,4.166,4.166,0,0,1-4.231.655,2.752,2.752,0,0,0-.963-.159s-.156.19-.156,1.131c0,.021-.01.042-.01.063a.664.664,0,0,1-.039.2.393.393,0,0,1-.039.1.6.6,0,0,1-.1.159.471.471,0,0,1-.068.074.7.7,0,0,1-.136.106c-.039.021-.068.032-.107.053-.019,0-.039.021-.068.032a1.621,1.621,0,0,0-.379,1.11c0,.9.4,1.046.525,1.067a.661.661,0,0,1,.632.581c.691,2.8,2.8,5.792,5.35,5.792S52.721,21.181,53.4,18.37ZM41.788,26.191a.692.692,0,0,0,1.021-.159.839.839,0,0,0-.146-1.11c-1.965-1.6-3.181-3.329-3.181-7.049,0-4.872,1.722-8.032,4.6-8.444a.742.742,0,0,0,.535-.391c.953-1.807,3.22-2.441,4.873-2.441a4.3,4.3,0,0,1,4.085,2.737.741.741,0,0,0,.321.338c1.926,1.046,2.636,3.276,2.636,8.212a6.956,6.956,0,0,1-1.469,4.333,7.577,7.577,0,0,0-1.41,3.255.782.782,0,0,0,.613.9h.107a.761.761,0,0,0,.72-.676,6.068,6.068,0,0,1,1.167-2.579,8.656,8.656,0,0,0,1.731-5.253c0-4.534-.554-7.895-3.239-9.512A5.659,5.659,0,0,0,49.492,4.99,7.082,7.082,0,0,0,43.548,7.9c-3.463.719-5.525,4.407-5.525,9.956,0,4.365,1.508,6.479,3.764,8.318ZM24.323,43.82s.374-1.807.734-1.807h2.082A30.077,30.077,0,0,1,32.449,27.3a3.616,3.616,0,0,1-.6-2.019,3.2,3.2,0,1,1,6.381,0,3.339,3.339,0,0,1-3.191,3.467,2.918,2.918,0,0,1-1.469-.412,29.1,29.1,0,0,0-4.951,13.676H33.8c0-3.509-.01-4.4-.019-4.619v-.021a9.613,9.613,0,0,1,1.965-6.648c1.975-2.441,5.214-3.678,9.64-3.678a.8.8,0,0,1,0,1.585c-3.978,0-6.858,1.057-8.541,3.139a7.95,7.95,0,0,0-1.615,5.39h-.068s.01.1.019.148h.058a.664.664,0,0,1-.039.2c.058.772.068,2.135.068,4.492H37.6a30.44,30.44,0,0,1-.447-5.242.732.732,0,1,1,1.459,0A29.212,29.212,0,0,0,39.083,42H56.943a29.02,29.02,0,0,0,.467-5.242.732.732,0,1,1,1.459,0A29.586,29.586,0,0,1,58.421,42h2.335c0-2.357,0-3.71.068-4.492a1.466,1.466,0,0,1-.039-.2h.058s.01-.1.019-.137h-.068A8.066,8.066,0,0,0,59.17,31.75c-1.693-2.071-4.552-3.128-8.521-3.128a.8.8,0,0,1,0-1.585c4.416,0,7.665,1.237,9.64,3.678a9.6,9.6,0,0,1,1.965,6.648v.021c0,.222-.019,1.11-.019,4.619h6.323a29.1,29.1,0,0,0-4.951-13.676,2.918,2.918,0,0,1-1.469.412,3.339,3.339,0,0,1-3.191-3.467,3.2,3.2,0,1,1,6.381,0,3.722,3.722,0,0,1-.6,2.019A30.185,30.185,0,0,1,70.036,42h2.082c.36,0,.657,1.416.706,1.807ZM62.633,27.068c-.331-.412-.671-.824-1.041-1.226a.847.847,0,0,1,0-1.12.693.693,0,0,1,1.031,0q.569.634,1.08,1.268a1.9,1.9,0,0,0,.126-.708A1.737,1.737,0,1,0,62.1,27.163a1.661,1.661,0,0,0,.516-.1ZM33.432,26c.34-.423.7-.856,1.08-1.268a.693.693,0,0,1,1.031,0,.837.837,0,0,1,0,1.12c-.37.4-.71.814-1.041,1.226a1.715,1.715,0,0,0,.516.1,1.888,1.888,0,1,0-1.731-1.881,2.114,2.114,0,0,0,.126.708Z" transform="translate(0 0)" fill="#ffe610" stroke="#ffe610" stroke-width="0.3"/></g></g></svg>