<svg xmlns="http://www.w3.org/2000/svg" xmlns:xlink="http://www.w3.org/1999/xlink" width="48" height="48" viewBox="0 0 48 48"><defs><clipPath id="b"><rect width="48" height="48"/></clipPath></defs><g id="a" clip-path="url(#b)"><g transform="translate(-1.85 -13.645)"><path d="M39.968,25.228l-9.985,23.7c-.875,2.438-2.419,3.855-4.117,3.855a3.669,3.669,0,0,1-3.242-2.041,5.17,5.17,0,0,1,.206-4.819h0L35.9,22.847a2.253,2.253,0,0,1,3.088-.907A2.617,2.617,0,0,1,39.968,25.228Zm3.5,6.86a1.962,1.962,0,0,0-2.934-.113,2.48,2.48,0,0,0-.1,3.232,23.483,23.483,0,0,1,5.3,15.025,2.068,2.068,0,1,0,4.117,0A28.322,28.322,0,0,0,43.468,32.088ZM27.822,28.346a2.1,2.1,0,0,0,2.213-2.041,2.183,2.183,0,0,0-1.853-2.438c-.669-.057-1.338-.113-2.007-.113C13.1,23.754,2.5,35.66,2.5,50.289a2.177,2.177,0,0,0,2.059,2.268,2.177,2.177,0,0,0,2.059-2.268c0-12.133,8.749-22,19.558-22A7.88,7.88,0,0,1,27.822,28.346Z" transform="translate(0 0)" fill="#08265d"/></g></g></svg>