<svg xmlns="http://www.w3.org/2000/svg" xmlns:xlink="http://www.w3.org/1999/xlink" width="48" height="48" viewBox="0 0 48 48"><defs><clipPath id="b"><rect width="48" height="48"/></clipPath></defs><g id="a" clip-path="url(#b)"><g transform="translate(0.358)"><path d="M39.5,40.426v0h.012V22.82c0-8.612-1.854-15.246-11.922-15.246a10.452,10.452,0,0,0-9.414,5.174h-.14V8.378H8.489V40.424h9.94V24.556c0-4.178.792-8.218,5.966-8.218,5.1,0,5.174,4.768,5.174,8.486v15.6Z" transform="translate(7.689 7.182)" fill="#ffe610"/><path d="M.4,7.977h9.952V40.023H.4Z" transform="translate(0.396 7.586)" fill="#ffe610"/><path d="M5.764,0a5.791,5.791,0,1,0,5.764,5.764A5.766,5.766,0,0,0,5.764,0Z" transform="translate(0 0)" fill="#ffe610"/></g></g></svg>