<svg xmlns="http://www.w3.org/2000/svg" xmlns:xlink="http://www.w3.org/1999/xlink" width="48" height="48" viewBox="0 0 48 48"><defs><clipPath id="b"><rect width="48" height="48"/></clipPath></defs><g id="a" clip-path="url(#b)"><g transform="translate(-130.001 1)"><path d="M38.91,20.476a9.14,9.14,0,0,0-9.1,9.139h0a1.429,1.429,0,0,0,2.858,0,6.237,6.237,0,1,1,7.87,6.067,3.95,3.95,0,0,0-3.068,3.695v2.807h0a1.429,1.429,0,1,0,2.858,0V39.378c0-.351.379-.78.961-.938h.011a9.15,9.15,0,0,0-2.4-17.964Zm-.043,24.39a1.611,1.611,0,1,0,.043,0h-.043Z" transform="translate(114.878 -11.481)" fill="#08265d"/><path d="M22.882,0A22.8,22.8,0,0,1,39.06,6.69V6.7a22.748,22.748,0,0,1,3.547,27.186l1.584,8.634h0a1.43,1.43,0,0,1-1.666,1.668L33.89,42.6a22.755,22.755,0,0,1-27.2-3.547A22.873,22.873,0,0,1,22.882,0Zm0,2.837A20.03,20.03,0,1,0,33.31,39.967h0a1.433,1.433,0,0,1,1-.189L41,41l-1.226-6.69a1.436,1.436,0,0,1,.182-1A20.035,20.035,0,0,0,22.881,2.837Z" transform="translate(131)" fill="#08265d" stroke="#08265d" stroke-width="1"/></g></g></svg>