<svg xmlns="http://www.w3.org/2000/svg" xmlns:xlink="http://www.w3.org/1999/xlink" width="113" height="84" viewBox="0 0 113 84"><defs><clipPath id="b"><rect width="113" height="84"/></clipPath></defs><g id="a" clip-path="url(#b)"><rect width="113" height="84" fill="#fff"/><g transform="translate(32 15)"><g transform="translate(-32 -15)"><g transform="translate(58.518 15.134)"><g transform="translate(5.482 2.866)" fill="#fff" stroke="#000" stroke-width="2"><rect width="35" height="19" rx="6" stroke="none"/><rect x="1" y="1" width="33" height="17" rx="5" fill="none"/></g><g transform="translate(0.482 33.866)" fill="#fff" stroke="#000" stroke-width="2"><rect width="40" height="19" rx="6" stroke="none"/><rect x="1" y="1" width="38" height="17" rx="5" fill="none"/></g><rect width="20" height="25" transform="translate(0.482 -0.134)" fill="#fff"/><rect width="9" height="26" transform="translate(0.482 30.866)" fill="#fff"/></g><circle cx="4" cy="4" r="4" transform="translate(30 1)" fill="#ffe610"/><circle cx="7" cy="7" r="7" transform="translate(0 66)" fill="#224fa4"/><circle cx="5" cy="5" r="5" transform="translate(103 54)" fill="#b1caf8"/></g><g transform="translate(-9.469 -0.269)"><path d="M38.851,5.207H17.742a7.252,7.252,0,0,0-7.256,7.256V23.018a1.979,1.979,0,1,0,3.958,0V12.463a3.3,3.3,0,0,1,3.3-3.3H38.851a3.3,3.3,0,0,1,3.3,3.3V54.683a3.3,3.3,0,0,1-3.3,3.3l-21.109,0a3.3,3.3,0,0,1-3.3-3.3V44.13a1.979,1.979,0,0,0-3.958,0V54.686a7.252,7.252,0,0,0,7.256,7.256H38.851a7.252,7.252,0,0,0,7.256-7.256l0-42.221a7.252,7.252,0,0,0-7.256-7.256ZM21.621,42.73a1.994,1.994,0,0,0,0,2.8,1.971,1.971,0,0,0,2.8,0L33.1,36.847a4.621,4.621,0,0,0,0-6.519l-8.681-8.681a1.978,1.978,0,0,0-2.8,2.8l7.177,7.177H7.186a1.979,1.979,0,1,0,0,3.958H28.8l-7.177,7.177Z" transform="translate(-5.207 -5.207)" fill="#ffe610"/><path d="M21.621,44.833a1.994,1.994,0,0,0,0,2.8,1.971,1.971,0,0,0,2.8,0L33.1,38.95a4.621,4.621,0,0,0,0-6.519l-8.681-8.681a1.978,1.978,0,0,0-2.8,2.8l7.177,7.177H7.186a1.979,1.979,0,0,0,0,3.958H28.8L21.621,44.86Z" transform="translate(-5.207 -7.327)" fill="#224fa4"/></g></g></g></svg>