<svg xmlns="http://www.w3.org/2000/svg" xmlns:xlink="http://www.w3.org/1999/xlink" width="48" height="48" viewBox="0 0 48 48">
  <defs>
    <clipPath id="clip-my-payments-icon">
      <rect width="48" height="48"/>
    </clipPath>
  </defs>
  <g id="my-payments-icon" clip-path="url(#clip-my-payments-icon)">
    <g id="noun-receipt-8112920" transform="translate(-5.066 3.004)">
      <path id="Path_29646" data-name="Path 29646" d="M39.686,19.385V39.863a1.042,1.042,0,0,1-1.125.933,1.232,1.232,0,0,1-.87-.341l-2.8-2.46-2.853,2.5a1.29,1.29,0,0,1-1.586.04L30.4,40.5l-2.854-2.5-2.854,2.5a1.29,1.29,0,0,1-1.586.04l-.048-.04-2.853-2.5-2.854,2.5a1.29,1.29,0,0,1-1.586.04l-.048-.04-2.854-2.5-2.854,2.5a1.29,1.29,0,0,1-1.586.04.862.862,0,0,1-.352-.677h0V5.85a4.465,4.465,0,0,1,1.72-3.428A6.486,6.486,0,0,1,13.923,1l14.514.01c1.856,0,3.97,0,14.45,0C43.023,1,43.158,1,43.3,1a6.49,6.49,0,0,1,4.136,1.426,4.467,4.467,0,0,1,1.72,3.428v12.6a1.042,1.042,0,0,1-1.125.933H39.693Zm0-7.217h7.209V5.851a2.75,2.75,0,0,0-1.06-2.11,3.994,3.994,0,0,0-2.545-.879c-.092,0-.186,0-.275.008h-.008a3.948,3.948,0,0,0-2.261.869,2.752,2.752,0,0,0-1.06,2.11Zm7.209,1.866H39.686v3.485h7.209ZM15.369,11.513a1.042,1.042,0,0,1-1.125-.933,1.042,1.042,0,0,1,1.125-.933h2.1a1.042,1.042,0,0,1,1.125.933,1.042,1.042,0,0,1-1.125.933Zm9.048,0a1.042,1.042,0,0,1-1.125-.933,1.042,1.042,0,0,1,1.125-.933h7.961a1.042,1.042,0,0,1,1.125.933,1.042,1.042,0,0,1-1.125.933Zm-9.048,7.872a1.042,1.042,0,0,1-1.125-.933,1.042,1.042,0,0,1,1.125-.933H32.378a1.042,1.042,0,0,1,1.125.933,1.042,1.042,0,0,1-1.125.933Zm0,7.872a.949.949,0,1,1,0-1.866H32.378a.949.949,0,1,1,0,1.866Zm23.3-24.386L28.429,2.863c-1.86,0-3.436,0-14.514,0a3.99,3.99,0,0,0-2.545.879,2.753,2.753,0,0,0-1.06,2.11v31.67L12.04,36l.048-.04a1.293,1.293,0,0,1,1.586.04l2.854,2.5L19.383,36l.048-.04a1.293,1.293,0,0,1,1.586.04l2.853,2.5L26.724,36l.048-.04a1.293,1.293,0,0,1,1.586.04l2.854,2.5L34.067,36l.048-.04A1.293,1.293,0,0,1,35.7,36l1.729,1.518V5.849a4.336,4.336,0,0,1,1.238-2.979Z" transform="translate(0)"/>
    </g>
  </g>
</svg>
