<svg xmlns="http://www.w3.org/2000/svg" xmlns:xlink="http://www.w3.org/1999/xlink" width="48" height="48" viewBox="0 0 48 48"><defs><clipPath id="b"><rect width="48" height="48"/></clipPath></defs><g id="a" clip-path="url(#b)"><g transform="translate(-7.261 -9.696)"><path d="M37.5,49.158V50.6a7.165,7.165,0,0,1-2.027,5.009,6.756,6.756,0,0,1-9.756,0A7.17,7.17,0,0,1,23.688,50.6V49.158H10.464a1.22,1.22,0,0,1-1.2-1.235,1.25,1.25,0,0,1,.262-.769l4.017-9.338V27.2a17.7,17.7,0,0,1,5.007-12.367,16.673,16.673,0,0,1,24.085,0A17.693,17.693,0,0,1,47.638,27.2V37.816l4.6,9.424a1.252,1.252,0,0,1-.329,1.708,1.179,1.179,0,0,1-.667.208v0H37.489Zm-11.406,0V50.6a4.675,4.675,0,0,0,1.323,3.264,4.4,4.4,0,0,0,6.357,0A4.671,4.671,0,0,0,35.095,50.6V49.158ZM40.936,16.581a14.313,14.313,0,0,0-20.686,0,15.2,15.2,0,0,0-4.3,10.622V38.183h0a1.235,1.235,0,0,1-.2.685l-3.023,7.82H49l-3.491-7.736a1.251,1.251,0,0,1-.262-.769V27.2a15.2,15.2,0,0,0-4.3-10.622Z" transform="translate(0)" fill="#fff" stroke="#fff" stroke-width="0.6"/></g></g></svg>