<svg xmlns="http://www.w3.org/2000/svg" xmlns:xlink="http://www.w3.org/1999/xlink" width="48" height="48" viewBox="0 0 48 48"><defs><clipPath id="b"><rect width="48" height="48"/></clipPath></defs><g id="a" clip-path="url(#b)"><g transform="translate(-10.062 -7.813)"><path d="M51.285,22.924H53.4V10.479a.888.888,0,0,0-.889-.889.889.889,0,0,1-.889-.889.888.888,0,0,0-.889-.889H17.285A.889.889,0,0,0,16.4,8.7a.888.888,0,0,1-.889.889.889.889,0,0,0-.889.889V22.924h-.889a2.666,2.666,0,0,0-2.667,2.667V38.035A2.666,2.666,0,0,0,13.729,40.7h.889V53.146a.888.888,0,0,0,.889.889.888.888,0,0,1,.889.889.888.888,0,0,0,.889.889H50.729a.888.888,0,0,0,.889-.889.889.889,0,0,1,.889-.889.888.888,0,0,0,.889-.889V40.7h.889a2.666,2.666,0,0,0,2.667-2.667V25.59c0-1.473-4.193-2.667-5.667-2.667ZM16.4,11.208A2.611,2.611,0,0,0,18.014,9.59H50a2.611,2.611,0,0,0,1.618,1.618V22.924H16.4ZM51.618,52.417A2.611,2.611,0,0,0,50,54.035H18.014A2.611,2.611,0,0,0,16.4,52.417V40.7H51.618Zm3.556-14.382a.888.888,0,0,1-.889.889H13.729a.889.889,0,0,1-.889-.889V25.591a.889.889,0,0,1,.889-.889H54.285a.888.888,0,0,1,.889.889Zm-5.333-24a.888.888,0,0,1-.889.889H19.063a.889.889,0,1,1,0-1.778H48.952a.888.888,0,0,1,.889.889ZM48.063,17.59a.888.888,0,0,1-.889.889H20.841a.889.889,0,1,1,0-1.778H47.174a.888.888,0,0,1,.889.889ZM18.174,46.035a.889.889,0,0,1,.889-.889H46.952a.889.889,0,1,1,0,1.778H19.063A.889.889,0,0,1,18.174,46.035ZM44.285,49.59a.888.888,0,0,1-.889.889H22.618a.889.889,0,0,1,0-1.778H43.4a.888.888,0,0,1,.889.889ZM25.619,26.479H23.841a2.666,2.666,0,0,0-2.667,2.667v5.333a2.666,2.666,0,0,0,2.667,2.667h1.778a2.666,2.666,0,0,0,2.667-2.667V29.146A2.666,2.666,0,0,0,25.619,26.479Zm.889,8a.888.888,0,0,1-.889.889H23.841a.889.889,0,0,1-.889-.889V29.146a.889.889,0,0,1,.889-.889h1.778a.888.888,0,0,1,.889.889Zm12.444-7.111a.888.888,0,0,1-.889.889H35.4v8a.889.889,0,1,1-1.778,0v-8H30.952a.889.889,0,1,1,0-1.778h7.111a.888.888,0,0,1,.889.889Zm5.333-.889H41.619a.889.889,0,0,0-.889.889v8.889a.889.889,0,0,0,1.778,0V33.59h1.778a3.556,3.556,0,0,0,0-7.111Zm0,5.333H42.507V28.257h1.778a1.778,1.778,0,0,1,0,3.556Z" transform="translate(0 0)" fill="#08265d"/></g></g></svg>