<svg xmlns="http://www.w3.org/2000/svg" xmlns:xlink="http://www.w3.org/1999/xlink" width="48" height="48" viewBox="0 0 48 48"><defs><clipPath id="b"><rect width="48" height="48"/></clipPath></defs><g id="a" clip-path="url(#b)"><g transform="translate(0 3)"><path d="M53.145,35.728H49.59v-2.68a4.46,4.46,0,0,0-4.444-4.467V25.9a13.334,13.334,0,1,0-26.667,0v2.68a4.46,4.46,0,0,0-4.444,4.467v2.68H10.478a2.676,2.676,0,0,0-2.667,2.68v7.147a2.676,2.676,0,0,0,2.667,2.68h3.556v2.68a4.46,4.46,0,0,0,4.444,4.467H45.145a4.46,4.46,0,0,0,4.444-4.467v-2.68h3.556a2.676,2.676,0,0,0,2.667-2.68V38.408a2.676,2.676,0,0,0-2.667-2.68ZM20.257,25.9a11.555,11.555,0,1,1,23.111,0v2.68H39.812V25.9a8,8,0,1,0-16,0v2.68H20.257Zm17.778,2.68H25.59V25.9a6.223,6.223,0,1,1,12.445,0ZM15.813,33.048a2.676,2.676,0,0,1,2.667-2.68H45.146a2.676,2.676,0,0,1,2.667,2.68v2.68h-32Zm32,17.868a2.676,2.676,0,0,1-2.667,2.68H18.479a2.676,2.676,0,0,1-2.667-2.68v-2.68h32Zm6.222-5.36a.892.892,0,0,1-.889.893H10.48a.892.892,0,0,1-.889-.893V38.408a.892.892,0,0,1,.889-.893H53.146a.892.892,0,0,1,.889.893Z" transform="translate(-7.812 -12.5)" fill="#08265d"/><path d="M20.033,59.8a.888.888,0,0,0-1.233-.247l-.791.527v-.511a.889.889,0,0,0-1.778,0v.511l-.791-.527a.889.889,0,1,0-.987,1.48l1.062.709-1.062.709a.889.889,0,0,0,.493,1.629.9.9,0,0,0,.493-.149l.791-.527v.511a.889.889,0,0,0,1.778,0V63.4l.791.527a.873.873,0,0,0,.493.149.889.889,0,0,0,.493-1.629l-1.062-.709,1.062-.709a.888.888,0,0,0,.247-1.233Z" transform="translate(-10.504 -32.252)" fill="#08265d"/><path d="M35.315,59.8a.888.888,0,0,0-1.233-.247l-.791.527v-.511a.889.889,0,0,0-1.778,0v.511l-.791-.529a.889.889,0,1,0-.987,1.48l1.062.709-1.062.709a.889.889,0,0,0,.493,1.629.9.9,0,0,0,.493-.149l.791-.529v.511a.889.889,0,1,0,1.778,0V63.4l.791.527a.873.873,0,0,0,.493.149.889.889,0,0,0,.493-1.629l-1.062-.709,1.062-.709a.888.888,0,0,0,.247-1.233Z" transform="translate(-17.092 -32.252)" fill="#08265d"/><path d="M50.588,59.8a.888.888,0,0,0-1.233-.247l-.791.527v-.511a.889.889,0,0,0-1.778,0v.511l-.791-.527a.889.889,0,1,0-.987,1.48l1.062.709-1.062.709a.889.889,0,0,0,.493,1.629.9.9,0,0,0,.493-.149l.791-.527v.511a.889.889,0,0,0,1.778,0V63.4l.791.527a.873.873,0,0,0,.493.149.889.889,0,0,0,.493-1.629l-1.062-.709,1.062-.709a.888.888,0,0,0,.247-1.233Z" transform="translate(-23.676 -32.252)" fill="#08265d"/><path d="M65.869,59.8a.888.888,0,0,0-1.233-.247l-.791.529v-.511a.889.889,0,0,0-1.778,0v.511l-.791-.527a.889.889,0,1,0-.987,1.48l1.062.709-1.062.709a.889.889,0,0,0,.493,1.629.9.9,0,0,0,.493-.149l.791-.527v.511a.889.889,0,0,0,1.778,0v-.511l.791.529a.873.873,0,0,0,.493.149.889.889,0,0,0,.493-1.629l-1.062-.709,1.062-.709a.888.888,0,0,0,.247-1.233Z" transform="translate(-30.264 -32.254)" fill="#08265d"/><path d="M81.147,59.8a.888.888,0,0,0-1.233-.247l-.791.527v-.511a.889.889,0,0,0-1.778,0v.511l-.791-.527a.889.889,0,1,0-.987,1.48l1.062.709-1.062.709a.889.889,0,0,0,.493,1.629.9.9,0,0,0,.493-.149l.791-.527v.511a.889.889,0,0,0,1.778,0V63.4l.791.527a.873.873,0,0,0,.493.149A.889.889,0,0,0,80.9,62.45l-1.062-.709,1.062-.709a.888.888,0,0,0,.247-1.233Z" transform="translate(-36.851 -32.252)" fill="#08265d"/></g></g></svg>