<svg xmlns="http://www.w3.org/2000/svg" xmlns:xlink="http://www.w3.org/1999/xlink" width="48" height="48" viewBox="0 0 48 48"><defs><clipPath id="b"><rect width="48" height="48"/></clipPath></defs><g id="a" clip-path="url(#b)"><g transform="translate(-15.143 -15.145)"><path d="M15.195,26.9a20.636,20.636,0,0,0,1.416,7.413c2.749,6.721,7.6,12.515,11.2,16.206,3.563,3.454,9.2,8.131,15.838,10.832a20.738,20.738,0,0,0,7.4,1.416l.657.035c.171.008.35.013.521.013a9.264,9.264,0,0,0,6.55-2.709l2.639-2.639a4.753,4.753,0,0,0,0-6.716L54.254,43.58a4.753,4.753,0,0,0-6.716,0l-3.131,3.131A23.055,23.055,0,0,1,31.244,33.547l3.131-3.131a4.75,4.75,0,0,0,0-6.715l-7.167-7.167a4.753,4.753,0,0,0-6.716,0l-2.639,2.639a9.269,9.269,0,0,0-2.7,7.071l.035.649Zm4.589-5.783,2.639-2.639a1.985,1.985,0,0,1,1.421-.588,2.007,2.007,0,0,1,1.421.588l7.167,7.167a2.012,2.012,0,0,1,0,2.845l-4.357,4.357.28.807A25.791,25.791,0,0,0,44.3,49.6l.807.28,4.357-4.357a2.063,2.063,0,0,1,2.845,0l7.167,7.167a1.985,1.985,0,0,1,.588,1.421,2.007,2.007,0,0,1-.588,1.421l-2.639,2.639a6.529,6.529,0,0,1-4.985,1.894l-.67-.035a18.149,18.149,0,0,1-6.518-1.218c-6.229-2.538-11.577-6.983-14.935-10.236-3.411-3.494-8.021-8.986-10.6-15.3a18.216,18.216,0,0,1-1.218-6.523l-.035-.662A6.55,6.55,0,0,1,19.765,21.1Z"/></g></g></svg>