<svg xmlns="http://www.w3.org/2000/svg" xmlns:xlink="http://www.w3.org/1999/xlink" width="48" height="48" viewBox="0 0 48 48"><defs><clipPath id="b"><rect width="48" height="48"/></clipPath></defs><g id="a" clip-path="url(#b)"><g transform="translate(-11 -10.656)"><path d="M51.353,25.269a2.429,2.429,0,1,0,4.2-2.449A23.918,23.918,0,0,0,11,34.656,23.792,23.792,0,0,0,34.875,58.312a2.43,2.43,0,1,0,0-4.861,18.8,18.8,0,1,1,0-37.591,19.118,19.118,0,0,1,16.479,9.408Z" transform="translate(0 0)" fill="#08265d"/><path d="M86.537,48.221c0,3.539-5.362,3.539-5.362,0s5.362-3.536,5.362,0" transform="translate(-27.537 -13.565)" fill="#08265d"/><path d="M77.787,67.987a2.7,2.7,0,0,0,3.662-.971,2.638,2.638,0,0,0-.98-3.624,2.7,2.7,0,0,0-3.662.971A2.638,2.638,0,0,0,77.787,67.987Z" transform="translate(-25.681 -20.419)" fill="#08265d"/><path d="M64.869,76.177a2.638,2.638,0,0,0-.98,3.624,2.7,2.7,0,0,0,3.662.971,2.638,2.638,0,0,0,.98-3.624A2.7,2.7,0,0,0,64.869,76.177Z" transform="translate(-20.612 -25.436)" fill="#08265d"/><path d="M48.723,32.836a2.432,2.432,0,0,0-2.43,2.43v7.961a2.426,2.426,0,0,0,.722,1.728l5.362,5.307a2.431,2.431,0,0,0,3.42-3.456l-4.64-4.593,0-6.947a2.429,2.429,0,0,0-2.43-2.43Z" transform="translate(-13.849 -8.569)" fill="#08265d"/></g></g></svg>