<svg xmlns="http://www.w3.org/2000/svg" xmlns:xlink="http://www.w3.org/1999/xlink" width="76" height="77" viewBox="0 0 76 77">
  <defs>
    <clipPath id="clip-ribbonrun-icon-bullet">
      <rect width="76" height="77"/>
    </clipPath>
  </defs>
  <g id="ribbonrun-icon-bullet" clip-path="url(#clip-ribbonrun-icon-bullet)">
    <g id="Group_15694" data-name="Group 15694" transform="translate(-610 -1420)">
      <g id="Group_15693" data-name="Group 15693" transform="translate(611 1422)">
        <path id="Path_29533" data-name="Path 29533" d="M37,0A37,37,0,1,1,0,37,37,37,0,0,1,37,0Z" transform="translate(0)" fill="#ffe610"/>
        <circle id="Ellipse_1064" data-name="Ellipse 1064" cx="32" cy="32" r="32" transform="translate(5 5)" fill="#fffef7"/>
      </g>
      <g id="noun-finish-line-113911" transform="translate(619.318 1437.724)">
        <g id="Group_15583" data-name="Group 15583" transform="translate(0)">
          <path id="Path_28959" data-name="Path 28959" d="M84.253,13.975a3.69,3.69,0,0,1-1.112-2.707,3.811,3.811,0,0,1,6.5-2.711,3.648,3.648,0,0,1,1.14,2.711,3.647,3.647,0,0,1-1.14,2.707,3.821,3.821,0,0,1-5.389,0Z" transform="translate(-43.744 -7.446)" fill="#08265d"/>
          <g id="Group_15582" data-name="Group 15582" transform="translate(0 5.972)">
            <path id="Path_28960" data-name="Path 28960" d="M39.81,38.545a31.453,31.453,0,0,0-12.717-8.55l1.152-1.336a32.361,32.361,0,0,1,7.224,3.71l4.787-5.56s2.216-2.8.743-5.154a3.88,3.88,0,0,0-3.309-1.773l-.009.006c-.021,0-.041-.006-.061-.006H20.469a2.158,2.158,0,1,0,0,4.315H32.1l-3.865,4.47a19.864,19.864,0,0,0-7.106-1.18,13.67,13.67,0,0,0-3.863.683,17.062,17.062,0,0,1-2.3-3.6l-1.474.643a17.976,17.976,0,0,0,2.2,3.579A31.576,31.576,0,0,0,12.5,30.516a22.243,22.243,0,0,1-2.772,1.491C4.571,33.694,2.577,30.5,2.5,30.369l-1.389.811c.026.045,2.691,4.461,9.173,2.336A22.962,22.962,0,0,0,13.323,31.9,26.747,26.747,0,0,1,16.8,30.055a11.244,11.244,0,0,0,3.373,2.434,18.807,18.807,0,0,0,3.709,1.217l-4.389,5.077H10.7a2.585,2.585,0,0,0-1.815.677A2.4,2.4,0,0,0,8.9,42.926a2.474,2.474,0,0,0,1.768.7h10.32a5.208,5.208,0,0,0,1.139-.113,3.149,3.149,0,0,0,1.826-.8l4.923-5.306s4.758,2.194,6.816,4.413c3.775,4.07,3.194,12.057,3.188,12.21a2.422,2.422,0,0,0,2.7,2.4,2.58,2.58,0,0,0,2.01-2.795S44.072,43.688,39.81,38.545ZM25.1,32.3a17.358,17.358,0,0,1-4.267-1.275,9.031,9.031,0,0,1-2.3-1.541,12.055,12.055,0,0,1,2.65-.387,17.735,17.735,0,0,1,5.906.9Z" transform="translate(-1.108 -19.881)" fill="#08265d"/>
          </g>
        </g>
      </g>
    </g>
  </g>
</svg>
