<svg xmlns="http://www.w3.org/2000/svg" xmlns:xlink="http://www.w3.org/1999/xlink" width="48" height="48" viewBox="0 0 48 48"><defs><clipPath id="b"><rect width="48" height="48"/></clipPath></defs><g id="a" clip-path="url(#b)"><g transform="translate(-24.901 -87.171)"><path d="M438.977,266.67a9.983,9.983,0,0,1-9.672-12.432.919.919,0,1,1,1.78.451,8.14,8.14,0,1,0,15.78,0,.919.919,0,0,1,1.781-.451,9.98,9.98,0,0,1-9.669,12.431Z" transform="translate(-384.07 -156.503)" fill="#08265d"/><path d="M324.5,536.359H290.349a.919.919,0,0,1-.919-.919V524.188a10.768,10.768,0,0,1,10.756-10.756h2.976a.919.919,0,0,1,.782.433l3.479,5.62,3.479-5.62a.919.919,0,0,1,.782-.435h2.976a10.771,10.771,0,0,1,10.756,10.758V535.44A.919.919,0,0,1,324.5,536.359Zm-33.229-1.838h32.311V524.188a8.928,8.928,0,0,0-8.918-8.918H312.2l-3.991,6.446a.919.919,0,0,1-1.563,0l-3.991-6.446h-2.464a8.928,8.928,0,0,0-8.918,8.918Z" transform="translate(-252.516 -401.491)" fill="#08265d"/><path d="M513.456,439.295a.883.883,0,0,1-.163-.015.919.919,0,0,1-.742-1.067,13.833,13.833,0,0,0,.209-2.428,14.148,14.148,0,0,0-.128-1.916.919.919,0,1,1,1.821-.249,16.041,16.041,0,0,1,.145,2.163,15.652,15.652,0,0,1-.238,2.753A.919.919,0,0,1,513.456,439.295Z" transform="translate(-462.808 -325.516)" fill="#08265d"/><path d="M658.141,439.335a.919.919,0,0,1-.9-.757,15.647,15.647,0,0,1-.238-2.753,15.9,15.9,0,0,1,.145-2.163.919.919,0,1,1,1.821.249,14.134,14.134,0,0,0-.128,1.914,13.806,13.806,0,0,0,.21,2.428.919.919,0,0,1-.743,1.067A.876.876,0,0,1,658.141,439.335Z" transform="translate(-598.974 -325.556)" fill="#08265d"/><path d="M763.919,783.519A.919.919,0,0,1,763,782.6v-6.031a.919.919,0,0,1,1.838,0V782.6A.919.919,0,0,1,763.919,783.519Z" transform="translate(-698.887 -648.651)" fill="#08265d"/><path d="M411.359,783.519a.919.919,0,0,1-.919-.919v-6.031a.919.919,0,0,1,1.838,0V782.6A.919.919,0,0,1,411.359,783.519Z" transform="translate(-366.576 -648.651)" fill="#08265d"/><path d="M452.222,98.883a.928.928,0,0,1-.326-.057,23.255,23.255,0,0,0-16.922,0,.919.919,0,0,1-1.245-.861V89.595a.919.919,0,0,1,.675-.883,33.6,33.6,0,0,1,18.06,0,.919.919,0,0,1,.675.886v8.367A.919.919,0,0,1,452.222,98.883Zm-8.787-3.5a25.346,25.346,0,0,1,7.868,1.284V90.3a31.72,31.72,0,0,0-15.737,0v6.363a25.355,25.355,0,0,1,7.87-1.284Z" transform="translate(-388.528)" fill="#08265d"/><path d="M763.919,624.335a.919.919,0,0,1-.919-.919v-4.307a.919.919,0,1,1,1.838,0v4.307A.919.919,0,0,1,763.919,624.335Z" transform="translate(-698.887 -500.234)" fill="#08265d"/><path d="M730.707,657.538H726.4a.919.919,0,0,1,0-1.838h4.308a.919.919,0,1,1,0,1.838Z" transform="translate(-663.522 -535.59)" fill="#08265d"/><path d="M88.24,436.277a4.244,4.244,0,0,1-4.24-4.24V408.169a.919.919,0,0,1,.919-.919h6.642a.919.919,0,0,1,.919.919v23.868A4.244,4.244,0,0,1,88.24,436.277Zm-2.4-27.189v22.949a2.4,2.4,0,0,0,4.8,0V409.088Z" transform="translate(-58.884 -301.409)" fill="#08265d"/><path d="M107.369,205.117h-4.59a.919.919,0,0,1-.919-.919v-7.839a5.514,5.514,0,0,1,5.509-5.509.919.919,0,0,1,.919.919V204.2A.919.919,0,0,1,107.369,205.117Zm-3.671-1.838h2.752V192.8a3.676,3.676,0,0,0-2.752,3.555Z" transform="translate(-75.718 -97.438)" fill="#08265d"/></g></g></svg>