<svg xmlns="http://www.w3.org/2000/svg" xmlns:xlink="http://www.w3.org/1999/xlink" width="48" height="48" viewBox="0 0 48 48">
  <defs>
    <clipPath id="clip-time-w-icon">
      <rect width="48" height="48"/>
    </clipPath>
  </defs>
  <g id="time-w-icon" clip-path="url(#clip-time-w-icon)">
    <g id="noun-time-4411197" transform="translate(-0.357 -0.357)">
      <g id="_84-management" data-name="84-management" transform="translate(1 1)">
        <path id="Path_29641" data-name="Path 29641" d="M24.357,47.714A23.357,23.357,0,1,1,47.714,24.357,23.357,23.357,0,0,1,24.357,47.714Zm0-43.6A20.243,20.243,0,1,0,44.6,24.357,20.243,20.243,0,0,0,24.357,4.114Zm-6.68,29.134,7.786-7.786a1.557,1.557,0,0,0,.452-1.106V15.014a1.557,1.557,0,0,0-3.114,0v8.7l-7.334,7.319a1.564,1.564,0,1,0,2.211,2.211Z" transform="translate(-1 -1)" fill="#fff" stroke="#fff" stroke-width="0.2"/>
      </g>
    </g>
  </g>
</svg>
