<svg xmlns="http://www.w3.org/2000/svg" xmlns:xlink="http://www.w3.org/1999/xlink" width="76.809" height="74" viewBox="0 0 76.809 74"><defs><filter id="a" x="0" y="0" width="76.809" height="74" filterUnits="userSpaceOnUse"><feOffset dy="3" input="SourceAlpha"/><feGaussianBlur stdDeviation="3" result="b"/><feFlood flood-color="#2e5294" flood-opacity="0.451"/><feComposite operator="in" in2="b"/><feComposite in="SourceGraphic"/></filter></defs><g transform="translate(-341 -680)"><g transform="translate(-0.191)"><g transform="matrix(1, 0, 0, 1, 341.19, 680)" filter="url(#a)"><g transform="translate(5762.29 924)" fill="#08265d"><path d="M-5740.756-868.789l-12.531,2.766,5.211-12.615a27.9,27.9,0,0,1-2.4-11.362,28,28,0,0,1,28-28,28,28,0,0,1,28,28,28,28,0,0,1-28,28A27.893,27.893,0,0,1-5740.756-868.789Z" stroke="none"/><path d="M -5722.47705078125 -864.0005493164062 C -5718.96630859375 -864.0005493164062 -5715.5615234375 -864.6876831054688 -5712.357421875 -866.0429077148438 C -5709.26171875 -867.352294921875 -5706.48095703125 -869.2272338867188 -5704.0927734375 -871.6156616210938 C -5701.7041015625 -874.0040893554688 -5699.8291015625 -876.7847900390625 -5698.52001953125 -879.880615234375 C -5697.16455078125 -883.084716796875 -5696.4775390625 -886.489501953125 -5696.4775390625 -890.0003662109375 C -5696.4775390625 -893.51123046875 -5697.16455078125 -896.916015625 -5698.52001953125 -900.1201171875 C -5699.8291015625 -903.2159423828125 -5701.7041015625 -905.9966430664062 -5704.0927734375 -908.3850708007812 C -5706.48095703125 -910.7734985351562 -5709.26171875 -912.6484375 -5712.357421875 -913.9578247070312 C -5715.5615234375 -915.3130493164062 -5718.96630859375 -916.0001831054688 -5722.47705078125 -916.0001831054688 C -5725.98779296875 -916.0001831054688 -5729.39306640625 -915.3130493164062 -5732.59716796875 -913.9578247070312 C -5735.69287109375 -912.6484375 -5738.4736328125 -910.7734985351562 -5740.86181640625 -908.3850708007812 C -5743.25048828125 -905.9966430664062 -5745.12548828125 -903.2159423828125 -5746.4345703125 -900.1201171875 C -5747.7900390625 -896.916015625 -5748.47705078125 -893.51123046875 -5748.47705078125 -890.0003662109375 C -5748.47705078125 -886.3275146484375 -5747.72705078125 -882.7779541015625 -5746.248046875 -879.4503173828125 L -5745.89990234375 -878.6668090820312 L -5749.974609375 -868.8025512695312 L -5740.20849609375 -870.9584350585938 L -5739.44970703125 -870.303955078125 C -5737.138671875 -868.3109130859375 -5734.52734375 -866.7548217773438 -5731.68798828125 -865.6788330078125 C -5728.7490234375 -864.565185546875 -5725.64990234375 -864.0005493164062 -5722.47705078125 -864.0005493164062 M -5722.47705078125 -862.0005493164062 C -5729.46240234375 -862.0005493164062 -5735.85107421875 -864.55908203125 -5740.755859375 -868.7894287109375 L -5753.28662109375 -866.0232543945312 L -5748.07568359375 -878.6380004882812 C -5749.619140625 -882.110595703125 -5750.47705078125 -885.9550170898438 -5750.47705078125 -890.0003662109375 C -5750.47705078125 -905.46435546875 -5737.94140625 -918.0001831054688 -5722.47705078125 -918.0001831054688 C -5707.01318359375 -918.0001831054688 -5694.4775390625 -905.46435546875 -5694.4775390625 -890.0003662109375 C -5694.4775390625 -874.536376953125 -5707.01318359375 -862.0005493164062 -5722.47705078125 -862.0005493164062 Z" stroke="none" fill="rgba(255,230,16,0)"/></g></g></g><g transform="translate(0 -1.574)"><g transform="translate(360.089 693.362)"><g transform="translate(8.91 2)"><path d="M69.345,24.031h2.541a.529.529,0,0,0,.529-.53v-2.54a.529.529,0,0,0-.529-.529H69.345a.529.529,0,0,0-.529.529V23.5A.529.529,0,0,0,69.345,24.031Zm.53-2.54h1.481v1.481H69.874Z" transform="translate(-52.305 -15.353)" fill="#ffe610"/><path d="M69.345,42.463h2.541a.529.529,0,0,0,.529-.53v-2.54a.529.529,0,0,0-.529-.53H69.345a.529.529,0,0,0-.529.53v2.54a.529.529,0,0,0,.529.53Zm.53-2.54h1.481V41.4H69.874Z" transform="translate(-52.305 -28.703)" fill="#ffe610"/><path d="M69.345,60.9h2.541a.529.529,0,0,0,.529-.529V57.826a.529.529,0,0,0-.529-.529H69.345a.529.529,0,0,0-.529.529v2.541a.529.529,0,0,0,.529.529Zm.53-2.54h1.481v1.481H69.874Z" transform="translate(-52.305 -42.057)" fill="#ffe610"/><path d="M25.356,22.234a5.37,5.37,0,0,0,2.791-1.73,4.711,4.711,0,0,0,.647-.874v0l0,0c.03-.053.058-.108.086-.161s.058-.1.083-.155.055-.118.083-.179.048-.1.07-.155.046-.123.07-.184.042-.106.06-.159.041-.134.061-.2c.015-.051.032-.1.046-.153.018-.068.032-.138.048-.207.012-.051.026-.1.036-.153.016-.078.028-.156.04-.235.006-.043.016-.086.022-.129.011-.083.018-.166.026-.25,0-.039.009-.078.012-.116.009-.123.013-.244.013-.366v0a5.594,5.594,0,0,0-4.2-5.41,4.79,4.79,0,0,0-1.413-.2,5.609,5.609,0,0,0,0,11.217,4.789,4.789,0,0,0,1.413-.2Zm-5.963-5.411a4.556,4.556,0,0,1,4.551-4.551,3.776,3.776,0,0,1,1.112.154l.029.009a4.527,4.527,0,0,1,2.789,6.676,3.754,3.754,0,0,1-.526.7,4.319,4.319,0,0,1-2.262,1.4l-.029.009a3.74,3.74,0,0,1-1.112.153,4.554,4.554,0,0,1-4.551-4.551Z" transform="translate(-15.793 -8.675)" fill="#ffe610"/><path d="M31.03,4.54H22.965c-.048-.051-.1-.1-.146-.15A8.145,8.145,0,0,0,8.91,10.151v.736a8.024,8.024,0,0,0,.869,3.64l6.807,13.641a.53.53,0,0,0,.947,0l.267-.536v.3a.529.529,0,0,0,.53.53h12.7a.529.529,0,0,0,.53-.53V5.07a.529.529,0,0,0-.53-.53ZM17.06,26.746l-6.336-12.7a6.944,6.944,0,0,1-.755-3.162v-.737a7.085,7.085,0,0,1,12.1-5.008,2.624,2.624,0,0,1,.229.248c.01.013.02.026.031.038a7.029,7.029,0,0,1,1.819,4.724v.737a6.961,6.961,0,0,1-.758,3.166l-.458.914a.451.451,0,0,0-.033.093Zm9.631.655H22.669V23.378h4.022Zm3.81,0H27.75V22.85a.529.529,0,0,0-.53-.53H22.139a.529.529,0,0,0-.529.53V27.4H18.859V25.514L21.2,20.839H23.41a.529.529,0,0,0,.53-.529V17.769a.529.529,0,0,0-.53-.529H23l.887-1.774a.476.476,0,0,0,.033-.093l.421-.843h0a8.03,8.03,0,0,0,.871-3.644v-.737c0-.183-.009-.366-.02-.548,0-.037,0-.072-.008-.109-.014-.175-.033-.35-.059-.523,0-.031-.01-.061-.015-.093-.028-.166-.057-.331-.094-.5,0-.017-.006-.036-.011-.053q-.06-.26-.138-.514l-.032-.1c-.053-.168-.11-.335-.174-.5-.008-.02-.017-.041-.025-.061-.061-.154-.128-.307-.2-.456-.012-.025-.023-.051-.034-.075-.076-.157-.158-.313-.245-.466q-.026-.047-.055-.094-.136-.233-.285-.455l0-.005,6.689,0Zm-7.62-9.1V19.78H21.726l.742-1.481Z" transform="translate(-8.91 -2)" fill="#ffe610"/></g></g><text transform="translate(364 732.611)" fill="#ffe610" font-size="10" font-family="Poppins-Medium, Poppins" font-weight="500"><tspan x="0" y="0">Venue</tspan></text></g></g></svg>