<svg xmlns="http://www.w3.org/2000/svg" xmlns:xlink="http://www.w3.org/1999/xlink" width="48" height="48" viewBox="0 0 48 48"><defs><clipPath id="b"><rect width="48" height="48"/></clipPath></defs><g id="a" clip-path="url(#b)"><g transform="translate(0 5)"><path d="M52.792,22.371a111.236,111.236,0,0,0-30.395,0,9.362,9.362,0,0,0-8.017,7.844,63.674,63.674,0,0,0-.791,10.021,64.566,64.566,0,0,0,.8,10.075,9.449,9.449,0,0,0,8,7.786,110.718,110.718,0,0,0,15.2,1.048,110.73,110.73,0,0,0,15.2-1.048,9.334,9.334,0,0,0,8-7.786,64.392,64.392,0,0,0,.8-10.075,64.417,64.417,0,0,0-.8-10.075,9.449,9.449,0,0,0-8-7.786Zm5.4,27.517a6.713,6.713,0,0,1-5.761,5.591,108.6,108.6,0,0,1-29.668,0A6.8,6.8,0,0,1,17,49.888a61.33,61.33,0,0,1-.008-19.263,6.742,6.742,0,0,1,5.776-5.643,108.122,108.122,0,0,1,29.668,0A6.8,6.8,0,0,1,58.2,30.574a61.578,61.578,0,0,1,.765,9.657,61.546,61.546,0,0,1-.765,9.657Z" transform="translate(-13.59 -21.328)" fill="#ffe610" stroke="#ffe610" stroke-width="1"/><path d="M54.9,44.079l-13.74-7.932a1.319,1.319,0,0,0-1.978,1.141V53.15a1.317,1.317,0,0,0,1.978,1.141L54.9,46.359a1.317,1.317,0,0,0,0-2.282ZM41.817,50.87V39.57L51.6,45.22Z" transform="translate(-22.309 -26.316)" fill="#ffe610" stroke="#ffe610" stroke-width="1"/></g></g></svg>